# MagicaVoxel @ ephtracy

# material
mtllib deco_8.mtl
usemtl palette

# normals
vn -1 0 0
vn 1 0 0
vn 0 0 1
vn 0 0 -1
vn 0 -1 0
vn 0 1 0

# texcoords
vt 0.974609 0.5
vt 0.978516 0.5
vt 0.982422 0.5

# verts
v -6 0 6
v -6 0 -6
v -6 1 6
v -6 1 -6
v -5 1 5
v -5 1 -5
v -5 3 5
v -5 3 2
v -5 3 -2
v -5 3 -5
v -5 13 2
v -5 13 -2
v -4 13 2
v -4 13 -2
v -4 15 2
v -4 15 -2
v -3 3 2
v -3 3 1
v -3 3 -1
v -3 3 -2
v -3 4 2
v -3 4 1
v -3 4 -1
v -3 4 -2
v -3 5 2
v -3 5 1
v -3 5 -1
v -3 5 -2
v -3 7 2
v -3 7 1
v -3 7 -1
v -3 7 -2
v -3 9 2
v -3 9 1
v -3 9 -1
v -3 9 -2
v -3 10 2
v -3 10 1
v -3 11 -1
v -3 11 -2
v -2 4 -1
v -2 4 -2
v -2 5 -1
v -2 5 -2
v -2 7 -1
v -2 7 -2
v -2 8 2
v -2 8 1
v -2 8 -1
v -2 8 -2
v -2 9 2
v -2 9 1
v -2 11 2
v -2 11 1
v -2 12 -1
v -2 12 -2
v -2 13 2
v -2 13 1
v -2 13 -1
v -2 13 -2
v -2 15 2
v -2 15 -2
v -2 16 2
v -2 16 -2
v -1 9 -1
v -1 9 -2
v -1 10 -1
v -1 10 -2
v 0 3 2
v 0 3 1
v 0 3 -1
v 0 3 -2
v 0 4 2
v 0 4 1
v 0 4 -1
v 0 4 -2
v 0 5 2
v 0 5 1
v 0 7 2
v 0 7 1
v 0 11 -1
v 0 11 -2
v 0 12 -1
v 0 12 -2
v 1 6 -1
v 1 6 -2
v 1 8 -1
v 1 8 -2
v 1 9 2
v 1 9 1
v 1 9 -1
v 1 9 -2
v 1 10 2
v 1 10 1
v 1 10 -1
v 1 10 -2
v 1 11 2
v 1 11 1
v 1 13 2
v 1 13 1
v 1 14 2
v 1 14 1
v 1 14 -1
v 1 14 -2
v 1 15 2
v 1 15 1
v 1 15 -1
v 1 15 -2
v 2 3 2
v 2 3 1
v 2 4 2
v 2 4 1
v 2 5 -1
v 2 5 -2
v 2 6 2
v 2 6 1
v 2 6 -1
v 2 6 -2
v 2 7 2
v 2 7 1
v 2 8 2
v 2 8 1
v 2 9 2
v 2 9 1
v 2 10 -1
v 2 10 -2
v 2 11 -1
v 2 11 -2
v 3 12 2
v 3 12 1
v 3 12 -1
v 3 12 -2
v 3 14 2
v 3 14 1
v 3 14 -1
v 3 14 -2
v 4 2 4
v 4 2 1
v 4 2 -1
v 4 2 -4
v 4 3 4
v 4 3 2
v 4 3 1
v 4 3 -1
v 4 3 -2
v 4 3 -4
v 4 12 2
v 4 12 1
v 4 12 -1
v 4 12 -2
v -4 2 4
v -4 2 1
v -4 2 -1
v -4 2 -4
v -4 3 4
v -4 3 2
v -4 3 1
v -4 3 -1
v -4 3 -2
v -4 3 -4
v -4 12 2
v -4 12 1
v -4 12 -1
v -4 12 -2
v -3 12 2
v -3 12 1
v -3 12 -1
v -3 12 -2
v -3 14 2
v -3 14 1
v -3 14 -1
v -3 14 -2
v -2 6 2
v -2 6 1
v -2 6 -1
v -2 6 -2
v -2 7 2
v -2 7 1
v -2 7 -1
v -2 7 -2
v -2 9 -1
v -2 9 -2
v -2 10 -1
v -2 10 -2
v -1 3 2
v -1 3 1
v -1 3 -1
v -1 3 -2
v -1 4 2
v -1 4 1
v -1 5 2
v -1 5 1
v -1 5 -1
v -1 5 -2
v -1 6 2
v -1 6 1
v -1 9 2
v -1 9 1
v -1 10 2
v -1 10 1
v -1 10 -1
v -1 10 -2
v -1 11 -1
v -1 11 -2
v -1 12 2
v -1 12 1
v -1 13 2
v -1 13 1
v -1 14 2
v -1 14 1
v -1 14 -1
v -1 14 -2
v -1 15 2
v -1 15 1
v -1 15 -1
v -1 15 -2
v 0 5 -1
v 0 5 -2
v 0 6 -1
v 0 6 -2
v 0 7 -1
v 0 7 -2
v 0 8 2
v 0 8 1
v 0 8 -1
v 0 8 -2
v 0 9 2
v 0 9 1
v 0 9 -1
v 0 9 -2
v 0 10 -1
v 0 10 -2
v 0 11 2
v 0 11 1
v 0 12 2
v 0 12 1
v 1 3 2
v 1 3 1
v 1 4 2
v 1 4 1
v 1 6 2
v 1 6 1
v 1 7 2
v 1 7 1
v 1 11 -1
v 1 11 -2
v 1 12 -1
v 1 12 -2
v 2 3 -1
v 2 3 -2
v 2 4 -1
v 2 4 -2
v 2 6 -1
v 2 6 -2
v 2 7 -1
v 2 7 -2
v 2 11 2
v 2 11 1
v 2 12 -1
v 2 12 -2
v 2 13 2
v 2 13 1
v 2 13 -1
v 2 13 -2
v 2 15 2
v 2 15 -2
v 2 16 2
v 2 16 -2
v 3 3 2
v 3 3 1
v 3 4 2
v 3 4 1
v 3 5 2
v 3 5 1
v 3 5 -1
v 3 5 -2
v 3 6 -1
v 3 6 -2
v 3 7 2
v 3 7 1
v 3 7 -1
v 3 7 -2
v 3 8 2
v 3 8 1
v 3 8 -1
v 3 8 -2
v 3 9 -1
v 3 9 -2
v 3 10 2
v 3 10 1
v 3 11 -1
v 3 11 -2
v 4 13 2
v 4 13 -2
v 4 15 2
v 4 15 -2
v 5 1 5
v 5 1 -5
v 5 3 5
v 5 3 2
v 5 3 -2
v 5 3 -5
v 5 13 2
v 5 13 -2
v 6 0 6
v 6 0 -6
v 6 1 6
v 6 1 -6
v -6 0 6
v -6 1 6
v 6 0 6
v 6 1 6
v -5 1 5
v -5 3 5
v 5 1 5
v 5 3 5
v -5 3 2
v -5 13 2
v -4 3 2
v -4 12 2
v -4 13 2
v -4 15 2
v -3 3 2
v -3 4 2
v -3 5 2
v -3 7 2
v -3 9 2
v -3 10 2
v -3 12 2
v -3 14 2
v -2 6 2
v -2 7 2
v -2 8 2
v -2 9 2
v -2 11 2
v -2 13 2
v -2 15 2
v -2 16 2
v -1 3 2
v -1 4 2
v -1 5 2
v -1 6 2
v -1 9 2
v -1 10 2
v -1 12 2
v -1 13 2
v -1 14 2
v -1 15 2
v 0 3 2
v 0 4 2
v 0 5 2
v 0 7 2
v 0 8 2
v 0 9 2
v 0 11 2
v 0 12 2
v 1 3 2
v 1 4 2
v 1 6 2
v 1 7 2
v 1 9 2
v 1 10 2
v 1 11 2
v 1 13 2
v 1 14 2
v 1 15 2
v 2 3 2
v 2 4 2
v 2 6 2
v 2 7 2
v 2 8 2
v 2 9 2
v 2 11 2
v 2 13 2
v 2 15 2
v 2 16 2
v 3 3 2
v 3 4 2
v 3 5 2
v 3 7 2
v 3 8 2
v 3 10 2
v 3 12 2
v 3 14 2
v 4 3 2
v 4 12 2
v 4 13 2
v 4 15 2
v 5 3 2
v 5 13 2
v -4 2 1
v -4 3 1
v -4 12 1
v -3 3 1
v -3 4 1
v -3 5 1
v -3 7 1
v -3 9 1
v -3 10 1
v -3 12 1
v -3 14 1
v -2 6 1
v -2 7 1
v -2 8 1
v -2 9 1
v -2 11 1
v -2 13 1
v -1 3 1
v -1 4 1
v -1 5 1
v -1 6 1
v -1 9 1
v -1 10 1
v -1 12 1
v -1 13 1
v -1 14 1
v -1 15 1
v 0 3 1
v 0 4 1
v 0 5 1
v 0 7 1
v 0 8 1
v 0 9 1
v 0 11 1
v 0 12 1
v 1 3 1
v 1 4 1
v 1 6 1
v 1 7 1
v 1 9 1
v 1 10 1
v 1 11 1
v 1 13 1
v 1 14 1
v 1 15 1
v 2 3 1
v 2 4 1
v 2 6 1
v 2 7 1
v 2 8 1
v 2 9 1
v 2 11 1
v 2 13 1
v 3 3 1
v 3 4 1
v 3 5 1
v 3 7 1
v 3 8 1
v 3 10 1
v 3 12 1
v 3 14 1
v 4 2 1
v 4 3 1
v 4 12 1
v -4 2 -4
v -4 3 -4
v 4 2 -4
v 4 3 -4
v -4 2 4
v -4 3 4
v 4 2 4
v 4 3 4
v -4 2 -1
v -4 3 -1
v -4 12 -1
v -3 3 -1
v -3 4 -1
v -3 5 -1
v -3 7 -1
v -3 9 -1
v -3 11 -1
v -3 12 -1
v -3 14 -1
v -2 4 -1
v -2 5 -1
v -2 6 -1
v -2 7 -1
v -2 8 -1
v -2 9 -1
v -2 10 -1
v -2 12 -1
v -2 13 -1
v -1 3 -1
v -1 5 -1
v -1 9 -1
v -1 10 -1
v -1 11 -1
v -1 14 -1
v -1 15 -1
v 0 3 -1
v 0 4 -1
v 0 5 -1
v 0 6 -1
v 0 7 -1
v 0 8 -1
v 0 9 -1
v 0 10 -1
v 0 11 -1
v 0 12 -1
v 1 6 -1
v 1 8 -1
v 1 9 -1
v 1 10 -1
v 1 11 -1
v 1 12 -1
v 1 14 -1
v 1 15 -1
v 2 3 -1
v 2 4 -1
v 2 5 -1
v 2 6 -1
v 2 7 -1
v 2 10 -1
v 2 11 -1
v 2 12 -1
v 2 13 -1
v 3 5 -1
v 3 6 -1
v 3 7 -1
v 3 8 -1
v 3 9 -1
v 3 11 -1
v 3 12 -1
v 3 14 -1
v 4 2 -1
v 4 3 -1
v 4 12 -1
v -5 3 -2
v -5 13 -2
v -4 3 -2
v -4 12 -2
v -4 13 -2
v -4 15 -2
v -3 3 -2
v -3 4 -2
v -3 5 -2
v -3 7 -2
v -3 9 -2
v -3 11 -2
v -3 12 -2
v -3 14 -2
v -2 4 -2
v -2 5 -2
v -2 6 -2
v -2 7 -2
v -2 8 -2
v -2 9 -2
v -2 10 -2
v -2 12 -2
v -2 13 -2
v -2 15 -2
v -2 16 -2
v -1 3 -2
v -1 5 -2
v -1 9 -2
v -1 10 -2
v -1 11 -2
v -1 14 -2
v -1 15 -2
v 0 3 -2
v 0 4 -2
v 0 5 -2
v 0 6 -2
v 0 7 -2
v 0 8 -2
v 0 9 -2
v 0 10 -2
v 0 11 -2
v 0 12 -2
v 1 6 -2
v 1 8 -2
v 1 9 -2
v 1 10 -2
v 1 11 -2
v 1 12 -2
v 1 14 -2
v 1 15 -2
v 2 3 -2
v 2 4 -2
v 2 5 -2
v 2 6 -2
v 2 7 -2
v 2 10 -2
v 2 11 -2
v 2 12 -2
v 2 13 -2
v 2 15 -2
v 2 16 -2
v 3 5 -2
v 3 6 -2
v 3 7 -2
v 3 8 -2
v 3 9 -2
v 3 11 -2
v 3 12 -2
v 3 14 -2
v 4 3 -2
v 4 12 -2
v 4 13 -2
v 4 15 -2
v 5 3 -2
v 5 13 -2
v -5 1 -5
v -5 3 -5
v 5 1 -5
v 5 3 -5
v -6 0 -6
v -6 1 -6
v 6 0 -6
v 6 1 -6
v -6 0 6
v 6 0 6
v -6 0 -6
v 6 0 -6
v -3 3 2
v -1 3 2
v 0 3 2
v 1 3 2
v 2 3 2
v 3 3 2
v -3 3 1
v -1 3 1
v 0 3 1
v 1 3 1
v 2 3 1
v 3 3 1
v -3 3 -1
v -1 3 -1
v 0 3 -1
v 2 3 -1
v -3 3 -2
v -1 3 -2
v 0 3 -2
v 2 3 -2
v -3 5 2
v -1 5 2
v 0 5 2
v 3 5 2
v -3 5 1
v -1 5 1
v 0 5 1
v 3 5 1
v -3 5 -1
v -2 5 -1
v -1 5 -1
v 0 5 -1
v 2 5 -1
v 3 5 -1
v -3 5 -2
v -2 5 -2
v -1 5 -2
v 0 5 -2
v 2 5 -2
v 3 5 -2
v 1 6 -1
v 2 6 -1
v 1 6 -2
v 2 6 -2
v -2 7 -1
v 0 7 -1
v 2 7 -1
v 3 7 -1
v -2 7 -2
v 0 7 -2
v 2 7 -2
v 3 7 -2
v -2 8 2
v 0 8 2
v 2 8 2
v 3 8 2
v -2 8 1
v 0 8 1
v 2 8 1
v 3 8 1
v -3 9 2
v -2 9 2
v 1 9 2
v 2 9 2
v -3 9 1
v -2 9 1
v 1 9 1
v 2 9 1
v -3 9 -1
v -2 9 -1
v -1 9 -1
v 0 9 -1
v 1 9 -1
v 3 9 -1
v -3 9 -2
v -2 9 -2
v -1 9 -2
v 0 9 -2
v 1 9 -2
v 3 9 -2
v -2 10 -1
v -1 10 -1
v -2 10 -2
v -1 10 -2
v -2 11 2
v 0 11 2
v 1 11 2
v 2 11 2
v -2 11 1
v 0 11 1
v 1 11 1
v 2 11 1
v 0 11 -1
v 1 11 -1
v 0 11 -2
v 1 11 -2
v -4 12 2
v -3 12 2
v 3 12 2
v 4 12 2
v -4 12 1
v -3 12 1
v 3 12 1
v 4 12 1
v -4 12 -1
v -3 12 -1
v -2 12 -1
v 0 12 -1
v 1 12 -1
v 2 12 -1
v 3 12 -1
v 4 12 -1
v -4 12 -2
v -3 12 -2
v -2 12 -2
v 0 12 -2
v 1 12 -2
v 2 12 -2
v 3 12 -2
v 4 12 -2
v -3 14 2
v -1 14 2
v 1 14 2
v 3 14 2
v -3 14 1
v -1 14 1
v 1 14 1
v 3 14 1
v -3 14 -1
v -1 14 -1
v 1 14 -1
v 3 14 -1
v -3 14 -2
v -1 14 -2
v 1 14 -2
v 3 14 -2
v -1 15 2
v 1 15 2
v -1 15 1
v 1 15 1
v -1 15 -1
v 1 15 -1
v -1 15 -2
v 1 15 -2
v -6 1 6
v 6 1 6
v -5 1 5
v 5 1 5
v -5 1 -5
v 5 1 -5
v -6 1 -6
v 6 1 -6
v -4 2 4
v 4 2 4
v -4 2 1
v 4 2 1
v -4 2 -1
v 4 2 -1
v -4 2 -4
v 4 2 -4
v -5 3 5
v 5 3 5
v -4 3 4
v 4 3 4
v -5 3 2
v -4 3 2
v 4 3 2
v 5 3 2
v -5 3 -2
v -4 3 -2
v 4 3 -2
v 5 3 -2
v -4 3 -4
v 4 3 -4
v -5 3 -5
v 5 3 -5
v -3 4 2
v -1 4 2
v 0 4 2
v 1 4 2
v 2 4 2
v 3 4 2
v -3 4 1
v -1 4 1
v 0 4 1
v 1 4 1
v 2 4 1
v 3 4 1
v -3 4 -1
v -2 4 -1
v 0 4 -1
v 2 4 -1
v -3 4 -2
v -2 4 -2
v 0 4 -2
v 2 4 -2
v -2 6 2
v -1 6 2
v 1 6 2
v 2 6 2
v -2 6 1
v -1 6 1
v 1 6 1
v 2 6 1
v -2 6 -1
v 0 6 -1
v 2 6 -1
v 3 6 -1
v -2 6 -2
v 0 6 -2
v 2 6 -2
v 3 6 -2
v -3 7 2
v -2 7 2
v 0 7 2
v 1 7 2
v 2 7 2
v 3 7 2
v -3 7 1
v -2 7 1
v 0 7 1
v 1 7 1
v 2 7 1
v 3 7 1
v -3 7 -1
v -2 7 -1
v -3 7 -2
v -2 7 -2
v -2 8 -1
v 0 8 -1
v 1 8 -1
v 3 8 -1
v -2 8 -2
v 0 8 -2
v 1 8 -2
v 3 8 -2
v -1 9 2
v 0 9 2
v -1 9 1
v 0 9 1
v -3 10 2
v -1 10 2
v 1 10 2
v 3 10 2
v -3 10 1
v -1 10 1
v 1 10 1
v 3 10 1
v -1 10 -1
v 0 10 -1
v 1 10 -1
v 2 10 -1
v -1 10 -2
v 0 10 -2
v 1 10 -2
v 2 10 -2
v -3 11 -1
v -1 11 -1
v 2 11 -1
v 3 11 -1
v -3 11 -2
v -1 11 -2
v 2 11 -2
v 3 11 -2
v -1 12 2
v 0 12 2
v -1 12 1
v 0 12 1
v -5 13 2
v -4 13 2
v -2 13 2
v -1 13 2
v 1 13 2
v 2 13 2
v 4 13 2
v 5 13 2
v -2 13 1
v -1 13 1
v 1 13 1
v 2 13 1
v -2 13 -1
v 2 13 -1
v -5 13 -2
v -4 13 -2
v -2 13 -2
v 2 13 -2
v 4 13 -2
v 5 13 -2
v -4 15 2
v -2 15 2
v 2 15 2
v 4 15 2
v -4 15 -2
v -2 15 -2
v 2 15 -2
v 4 15 -2
v -2 16 2
v 2 16 2
v -2 16 -2
v 2 16 -2

# faces
f 3/3/1 2/3/1 1/3/1
f 4/3/1 2/3/1 3/3/1
f 7/3/1 6/3/1 5/3/1
f 8/3/1 6/3/1 7/3/1
f 9/3/1 6/3/1 8/3/1
f 10/3/1 6/3/1 9/3/1
f 11/2/1 9/2/1 8/2/1
f 12/2/1 9/2/1 11/2/1
f 15/2/1 14/2/1 13/2/1
f 16/2/1 14/2/1 15/2/1
f 21/1/1 18/1/1 17/1/1
f 22/1/1 18/1/1 21/1/1
f 23/1/1 20/1/1 19/1/1
f 24/1/1 20/1/1 23/1/1
f 29/1/1 26/1/1 25/1/1
f 30/1/1 26/1/1 29/1/1
f 31/1/1 28/1/1 27/1/1
f 32/1/1 28/1/1 31/1/1
f 37/1/1 34/1/1 33/1/1
f 38/1/1 34/1/1 37/1/1
f 39/1/1 36/1/1 35/1/1
f 40/1/1 36/1/1 39/1/1
f 43/1/1 42/1/1 41/1/1
f 44/1/1 42/1/1 43/1/1
f 49/1/1 46/1/1 45/1/1
f 50/1/1 46/1/1 49/1/1
f 51/1/1 48/1/1 47/1/1
f 52/1/1 48/1/1 51/1/1
f 57/1/1 54/1/1 53/1/1
f 58/1/1 54/1/1 57/1/1
f 59/1/1 56/1/1 55/1/1
f 60/1/1 56/1/1 59/1/1
f 63/2/1 62/2/1 61/2/1
f 64/2/1 62/2/1 63/2/1
f 67/1/1 66/1/1 65/1/1
f 68/1/1 66/1/1 67/1/1
f 73/1/1 70/1/1 69/1/1
f 74/1/1 70/1/1 73/1/1
f 75/1/1 72/1/1 71/1/1
f 76/1/1 72/1/1 75/1/1
f 79/1/1 78/1/1 77/1/1
f 80/1/1 78/1/1 79/1/1
f 83/1/1 82/1/1 81/1/1
f 84/1/1 82/1/1 83/1/1
f 87/1/1 86/1/1 85/1/1
f 88/1/1 86/1/1 87/1/1
f 93/1/1 90/1/1 89/1/1
f 94/1/1 90/1/1 93/1/1
f 95/1/1 92/1/1 91/1/1
f 96/1/1 92/1/1 95/1/1
f 99/1/1 98/1/1 97/1/1
f 100/1/1 98/1/1 99/1/1
f 105/2/1 102/2/1 101/2/1
f 106/2/1 102/2/1 105/2/1
f 107/2/1 104/2/1 103/2/1
f 108/2/1 104/2/1 107/2/1
f 111/1/1 110/1/1 109/1/1
f 112/1/1 110/1/1 111/1/1
f 117/1/1 114/1/1 113/1/1
f 118/1/1 114/1/1 117/1/1
f 119/1/1 116/1/1 115/1/1
f 120/1/1 116/1/1 119/1/1
f 123/1/1 122/1/1 121/1/1
f 124/1/1 122/1/1 123/1/1
f 127/1/1 126/1/1 125/1/1
f 128/1/1 126/1/1 127/1/1
f 133/2/1 130/2/1 129/2/1
f 134/2/1 130/2/1 133/2/1
f 135/2/1 132/2/1 131/2/1
f 136/2/1 132/2/1 135/2/1
f 141/3/1 138/3/1 137/3/1
f 142/3/1 138/3/1 141/3/1
f 143/3/1 138/3/1 142/3/1
f 144/3/1 140/3/1 139/3/1
f 145/3/1 140/3/1 144/3/1
f 146/3/1 140/3/1 145/3/1
f 147/2/1 143/2/1 142/2/1
f 148/2/1 143/2/1 147/2/1
f 149/2/1 145/2/1 144/2/1
f 150/2/1 145/2/1 149/2/1
f 151/3/2 152/3/2 155/3/2
f 155/3/2 152/3/2 156/3/2
f 156/3/2 152/3/2 157/3/2
f 153/3/2 154/3/2 158/3/2
f 158/3/2 154/3/2 159/3/2
f 159/3/2 154/3/2 160/3/2
f 156/2/2 157/2/2 161/2/2
f 161/2/2 157/2/2 162/2/2
f 158/2/2 159/2/2 163/2/2
f 163/2/2 159/2/2 164/2/2
f 165/2/2 166/2/2 169/2/2
f 169/2/2 166/2/2 170/2/2
f 167/2/2 168/2/2 171/2/2
f 171/2/2 168/2/2 172/2/2
f 173/1/2 174/1/2 177/1/2
f 177/1/2 174/1/2 178/1/2
f 175/1/2 176/1/2 179/1/2
f 179/1/2 176/1/2 180/1/2
f 181/1/2 182/1/2 183/1/2
f 183/1/2 182/1/2 184/1/2
f 185/1/2 186/1/2 189/1/2
f 189/1/2 186/1/2 190/1/2
f 187/1/2 188/1/2 193/1/2
f 193/1/2 188/1/2 194/1/2
f 191/1/2 192/1/2 195/1/2
f 195/1/2 192/1/2 196/1/2
f 197/1/2 198/1/2 199/1/2
f 199/1/2 198/1/2 200/1/2
f 201/1/2 202/1/2 203/1/2
f 203/1/2 202/1/2 204/1/2
f 205/1/2 206/1/2 207/1/2
f 207/1/2 206/1/2 208/1/2
f 209/2/2 210/2/2 213/2/2
f 213/2/2 210/2/2 214/2/2
f 211/2/2 212/2/2 215/2/2
f 215/2/2 212/2/2 216/2/2
f 217/1/2 218/1/2 219/1/2
f 219/1/2 218/1/2 220/1/2
f 221/1/2 222/1/2 225/1/2
f 225/1/2 222/1/2 226/1/2
f 223/1/2 224/1/2 227/1/2
f 227/1/2 224/1/2 228/1/2
f 229/1/2 230/1/2 231/1/2
f 231/1/2 230/1/2 232/1/2
f 233/1/2 234/1/2 235/1/2
f 235/1/2 234/1/2 236/1/2
f 237/1/2 238/1/2 239/1/2
f 239/1/2 238/1/2 240/1/2
f 241/1/2 242/1/2 243/1/2
f 243/1/2 242/1/2 244/1/2
f 245/1/2 246/1/2 247/1/2
f 247/1/2 246/1/2 248/1/2
f 249/1/2 250/1/2 251/1/2
f 251/1/2 250/1/2 252/1/2
f 253/1/2 254/1/2 255/1/2
f 255/1/2 254/1/2 256/1/2
f 257/1/2 258/1/2 261/1/2
f 261/1/2 258/1/2 262/1/2
f 259/1/2 260/1/2 263/1/2
f 263/1/2 260/1/2 264/1/2
f 265/2/2 266/2/2 267/2/2
f 267/2/2 266/2/2 268/2/2
f 269/1/2 270/1/2 271/1/2
f 271/1/2 270/1/2 272/1/2
f 275/1/2 276/1/2 277/1/2
f 277/1/2 276/1/2 278/1/2
f 273/1/2 274/1/2 279/1/2
f 279/1/2 274/1/2 280/1/2
f 281/1/2 282/1/2 285/1/2
f 285/1/2 282/1/2 286/1/2
f 283/1/2 284/1/2 289/1/2
f 289/1/2 284/1/2 290/1/2
f 287/1/2 288/1/2 291/1/2
f 291/1/2 288/1/2 292/1/2
f 293/2/2 294/2/2 295/2/2
f 295/2/2 294/2/2 296/2/2
f 297/3/2 298/3/2 299/3/2
f 299/3/2 298/3/2 300/3/2
f 300/3/2 298/3/2 301/3/2
f 301/3/2 298/3/2 302/3/2
f 300/2/2 301/2/2 303/2/2
f 303/2/2 301/2/2 304/2/2
f 305/3/2 306/3/2 307/3/2
f 307/3/2 306/3/2 308/3/2
f 311/3/3 310/3/3 309/3/3
f 312/3/3 310/3/3 311/3/3
f 315/3/3 314/3/3 313/3/3
f 316/3/3 314/3/3 315/3/3
f 319/2/3 318/2/3 317/2/3
f 320/2/3 318/2/3 319/2/3
f 321/2/3 318/2/3 320/2/3
f 329/2/3 322/2/3 321/2/3
f 329/2/3 321/2/3 320/2/3
f 330/2/3 322/2/3 329/2/3
f 331/1/3 326/1/3 325/1/3
f 332/1/3 326/1/3 331/1/3
f 334/1/3 328/1/3 327/1/3
f 337/2/3 322/2/3 330/2/3
f 339/1/3 324/1/3 323/1/3
f 340/1/3 324/1/3 339/1/3
f 341/1/3 331/1/3 325/1/3
f 342/1/3 331/1/3 341/1/3
f 343/1/3 328/1/3 334/1/3
f 343/1/3 334/1/3 333/1/3
f 344/1/3 328/1/3 343/1/3
f 345/1/3 336/1/3 335/1/3
f 346/1/3 336/1/3 345/1/3
f 347/2/3 338/2/3 337/2/3
f 347/2/3 337/2/3 330/2/3
f 348/2/3 338/2/3 347/2/3
f 353/1/3 343/1/3 333/1/3
f 354/1/3 343/1/3 353/1/3
f 355/1/3 345/1/3 335/1/3
f 356/1/3 345/1/3 355/1/3
f 357/1/3 350/1/3 349/1/3
f 358/1/3 350/1/3 357/1/3
f 359/1/3 352/1/3 351/1/3
f 360/1/3 352/1/3 359/1/3
f 366/2/3 338/2/3 348/2/3
f 369/1/3 359/1/3 351/1/3
f 372/1/3 362/1/3 361/1/3
f 373/1/3 364/1/3 363/1/3
f 374/1/3 364/1/3 373/1/3
f 375/2/3 366/2/3 365/2/3
f 375/2/3 338/2/3 366/2/3
f 376/2/3 338/2/3 375/2/3
f 377/1/3 368/1/3 367/1/3
f 378/1/3 368/1/3 377/1/3
f 379/1/3 370/1/3 369/1/3
f 379/1/3 369/1/3 351/1/3
f 380/1/3 370/1/3 379/1/3
f 381/1/3 372/1/3 371/1/3
f 382/1/3 362/1/3 372/1/3
f 382/1/3 372/1/3 381/1/3
f 384/2/3 375/2/3 365/2/3
f 386/2/3 384/2/3 383/2/3
f 387/2/3 384/2/3 386/2/3
f 388/2/3 375/2/3 384/2/3
f 388/2/3 384/2/3 387/2/3
f 389/2/3 387/2/3 386/2/3
f 389/2/3 386/2/3 385/2/3
f 390/2/3 387/2/3 389/2/3
f 394/2/3 392/2/3 391/2/3
f 394/2/3 393/2/3 392/2/3
f 395/2/3 393/2/3 394/2/3
f 396/2/3 393/2/3 395/2/3
f 397/2/3 393/2/3 396/2/3
f 398/2/3 393/2/3 397/2/3
f 399/2/3 393/2/3 398/2/3
f 400/2/3 393/2/3 399/2/3
f 403/2/3 398/2/3 397/2/3
f 404/2/3 398/2/3 403/2/3
f 405/2/3 398/2/3 404/2/3
f 406/2/3 401/2/3 400/2/3
f 406/2/3 400/2/3 399/2/3
f 407/2/3 401/2/3 406/2/3
f 408/2/3 394/2/3 391/2/3
f 409/2/3 396/2/3 395/2/3
f 410/2/3 396/2/3 409/2/3
f 411/2/3 404/2/3 403/2/3
f 411/2/3 403/2/3 402/2/3
f 413/2/3 406/2/3 399/2/3
f 415/2/3 401/2/3 407/2/3
f 416/2/3 401/2/3 415/2/3
f 418/2/3 411/2/3 410/2/3
f 418/2/3 408/2/3 391/2/3
f 418/2/3 410/2/3 409/2/3
f 418/2/3 409/2/3 408/2/3
f 419/2/3 411/2/3 418/2/3
f 420/2/3 411/2/3 419/2/3
f 421/2/3 404/2/3 411/2/3
f 421/2/3 411/2/3 420/2/3
f 422/2/3 404/2/3 421/2/3
f 423/2/3 413/2/3 412/2/3
f 424/2/3 406/2/3 413/2/3
f 424/2/3 413/2/3 423/2/3
f 425/2/3 417/2/3 416/2/3
f 425/2/3 416/2/3 415/2/3
f 425/2/3 415/2/3 414/2/3
f 426/2/3 418/2/3 391/2/3
f 427/2/3 420/2/3 419/2/3
f 429/2/3 422/2/3 421/2/3
f 429/2/3 424/2/3 423/2/3
f 429/2/3 425/2/3 424/2/3
f 429/2/3 423/2/3 422/2/3
f 430/2/3 425/2/3 429/2/3
f 431/2/3 425/2/3 430/2/3
f 432/2/3 425/2/3 431/2/3
f 433/2/3 417/2/3 425/2/3
f 433/2/3 425/2/3 432/2/3
f 434/2/3 417/2/3 433/2/3
f 435/2/3 417/2/3 434/2/3
f 436/2/3 427/2/3 426/2/3
f 436/2/3 426/2/3 391/2/3
f 437/2/3 420/2/3 427/2/3
f 437/2/3 427/2/3 436/2/3
f 438/2/3 429/2/3 428/2/3
f 438/2/3 430/2/3 429/2/3
f 439/2/3 430/2/3 438/2/3
f 440/2/3 430/2/3 439/2/3
f 441/2/3 430/2/3 440/2/3
f 442/2/3 432/2/3 431/2/3
f 443/2/3 434/2/3 433/2/3
f 444/2/3 436/2/3 391/2/3
f 445/2/3 420/2/3 437/2/3
f 446/2/3 420/2/3 445/2/3
f 447/2/3 440/2/3 439/2/3
f 448/2/3 440/2/3 447/2/3
f 449/2/3 443/2/3 442/2/3
f 449/2/3 442/2/3 431/2/3
f 450/2/3 443/2/3 449/2/3
f 451/2/3 434/2/3 443/2/3
f 451/2/3 443/2/3 450/2/3
f 452/2/3 448/2/3 447/2/3
f 452/2/3 447/2/3 446/2/3
f 452/2/3 449/2/3 448/2/3
f 452/2/3 450/2/3 449/2/3
f 452/2/3 444/2/3 391/2/3
f 452/2/3 445/2/3 444/2/3
f 452/2/3 446/2/3 445/2/3
f 453/2/3 450/2/3 452/2/3
f 454/2/3 450/2/3 453/2/3
f 457/3/3 456/3/3 455/3/3
f 458/3/3 456/3/3 457/3/3
f 459/3/4 460/3/4 461/3/4
f 461/3/4 460/3/4 462/3/4
f 463/2/4 464/2/4 466/2/4
f 464/2/4 465/2/4 466/2/4
f 466/2/4 465/2/4 467/2/4
f 467/2/4 465/2/4 468/2/4
f 468/2/4 465/2/4 469/2/4
f 469/2/4 465/2/4 470/2/4
f 470/2/4 465/2/4 471/2/4
f 471/2/4 465/2/4 472/2/4
f 467/2/4 468/2/4 474/2/4
f 474/2/4 468/2/4 475/2/4
f 469/2/4 470/2/4 477/2/4
f 477/2/4 470/2/4 478/2/4
f 478/2/4 470/2/4 479/2/4
f 472/2/4 473/2/4 481/2/4
f 471/2/4 472/2/4 481/2/4
f 481/2/4 473/2/4 482/2/4
f 463/2/4 466/2/4 483/2/4
f 479/2/4 480/2/4 485/2/4
f 478/2/4 479/2/4 485/2/4
f 485/2/4 480/2/4 486/2/4
f 471/2/4 481/2/4 487/2/4
f 482/2/4 473/2/4 488/2/4
f 483/2/4 484/2/4 490/2/4
f 463/2/4 483/2/4 490/2/4
f 490/2/4 484/2/4 491/2/4
f 491/2/4 484/2/4 492/2/4
f 476/2/4 477/2/4 493/2/4
f 493/2/4 477/2/4 494/2/4
f 478/2/4 485/2/4 495/2/4
f 495/2/4 485/2/4 496/2/4
f 486/2/4 487/2/4 497/2/4
f 487/2/4 481/2/4 498/2/4
f 497/2/4 487/2/4 498/2/4
f 498/2/4 481/2/4 499/2/4
f 495/2/4 496/2/4 500/2/4
f 496/2/4 497/2/4 500/2/4
f 497/2/4 498/2/4 500/2/4
f 491/2/4 492/2/4 500/2/4
f 494/2/4 495/2/4 500/2/4
f 493/2/4 494/2/4 500/2/4
f 492/2/4 493/2/4 500/2/4
f 500/2/4 498/2/4 501/2/4
f 501/2/4 498/2/4 502/2/4
f 502/2/4 498/2/4 503/2/4
f 503/2/4 498/2/4 504/2/4
f 488/2/4 489/2/4 506/2/4
f 482/2/4 488/2/4 506/2/4
f 506/2/4 489/2/4 507/2/4
f 463/2/4 490/2/4 508/2/4
f 491/2/4 500/2/4 509/2/4
f 509/2/4 500/2/4 510/2/4
f 510/2/4 500/2/4 511/2/4
f 504/2/4 505/2/4 513/2/4
f 503/2/4 504/2/4 513/2/4
f 513/2/4 505/2/4 514/2/4
f 514/2/4 505/2/4 515/2/4
f 482/2/4 506/2/4 516/2/4
f 508/2/4 509/2/4 517/2/4
f 509/2/4 510/2/4 517/2/4
f 511/2/4 512/2/4 518/2/4
f 518/2/4 512/2/4 519/2/4
f 501/2/4 502/2/4 520/2/4
f 520/2/4 502/2/4 521/2/4
f 515/2/4 516/2/4 522/2/4
f 514/2/4 515/2/4 522/2/4
f 522/2/4 516/2/4 523/2/4
f 516/2/4 506/2/4 524/2/4
f 523/2/4 516/2/4 524/2/4
f 508/2/4 517/2/4 525/2/4
f 520/2/4 521/2/4 525/2/4
f 521/2/4 522/2/4 525/2/4
f 519/2/4 520/2/4 525/2/4
f 463/2/4 508/2/4 525/2/4
f 517/2/4 518/2/4 525/2/4
f 518/2/4 519/2/4 525/2/4
f 522/2/4 523/2/4 525/2/4
f 525/2/4 523/2/4 526/2/4
f 526/2/4 523/2/4 527/2/4
f 528/2/4 529/2/4 530/2/4
f 530/2/4 529/2/4 531/2/4
f 531/2/4 529/2/4 532/2/4
f 532/2/4 533/2/4 540/2/4
f 531/2/4 532/2/4 540/2/4
f 540/2/4 533/2/4 541/2/4
f 534/1/4 535/1/4 542/1/4
f 536/1/4 537/1/4 543/1/4
f 543/1/4 537/1/4 544/1/4
f 544/1/4 537/1/4 545/1/4
f 538/1/4 539/1/4 547/1/4
f 547/1/4 539/1/4 548/1/4
f 541/2/4 533/2/4 551/2/4
f 534/1/4 542/1/4 553/1/4
f 542/1/4 543/1/4 553/1/4
f 543/1/4 544/1/4 553/1/4
f 553/1/4 544/1/4 554/1/4
f 548/1/4 539/1/4 556/1/4
f 556/1/4 539/1/4 557/1/4
f 551/2/4 552/2/4 558/2/4
f 541/2/4 551/2/4 558/2/4
f 558/2/4 552/2/4 559/2/4
f 554/1/4 544/1/4 562/1/4
f 562/1/4 544/1/4 563/1/4
f 545/1/4 546/1/4 564/1/4
f 564/1/4 546/1/4 565/1/4
f 555/1/4 556/1/4 566/1/4
f 566/1/4 556/1/4 567/1/4
f 549/1/4 550/1/4 569/1/4
f 568/1/4 569/1/4 574/1/4
f 569/1/4 550/1/4 575/1/4
f 574/1/4 569/1/4 575/1/4
f 559/2/4 552/2/4 577/2/4
f 560/1/4 561/1/4 578/1/4
f 578/1/4 561/1/4 579/1/4
f 570/1/4 571/1/4 581/1/4
f 581/1/4 571/1/4 582/1/4
f 572/1/4 573/1/4 583/1/4
f 575/1/4 550/1/4 585/1/4
f 585/1/4 550/1/4 586/1/4
f 576/2/4 577/2/4 587/2/4
f 577/2/4 552/2/4 587/2/4
f 587/2/4 552/2/4 588/2/4
f 580/1/4 581/1/4 589/1/4
f 589/1/4 581/1/4 590/1/4
f 582/1/4 571/1/4 591/1/4
f 591/1/4 571/1/4 592/1/4
f 583/1/4 584/1/4 593/1/4
f 572/1/4 583/1/4 593/1/4
f 593/1/4 584/1/4 594/1/4
f 576/2/4 587/2/4 596/2/4
f 595/2/4 596/2/4 598/2/4
f 598/2/4 596/2/4 599/2/4
f 596/2/4 587/2/4 600/2/4
f 599/2/4 596/2/4 600/2/4
f 598/2/4 599/2/4 601/2/4
f 597/2/4 598/2/4 601/2/4
f 601/2/4 599/2/4 602/2/4
f 603/3/4 604/3/4 605/3/4
f 605/3/4 604/3/4 606/3/4
f 607/3/4 608/3/4 609/3/4
f 609/3/4 608/3/4 610/3/4
f 613/3/5 612/3/5 611/3/5
f 614/3/5 612/3/5 613/3/5
f 621/1/5 616/1/5 615/1/5
f 622/1/5 616/1/5 621/1/5
f 623/1/5 618/1/5 617/1/5
f 624/1/5 618/1/5 623/1/5
f 625/1/5 620/1/5 619/1/5
f 626/1/5 620/1/5 625/1/5
f 631/1/5 628/1/5 627/1/5
f 632/1/5 628/1/5 631/1/5
f 633/1/5 630/1/5 629/1/5
f 634/1/5 630/1/5 633/1/5
f 639/1/5 636/1/5 635/1/5
f 640/1/5 636/1/5 639/1/5
f 641/1/5 638/1/5 637/1/5
f 642/1/5 638/1/5 641/1/5
f 649/1/5 644/1/5 643/1/5
f 650/1/5 644/1/5 649/1/5
f 651/1/5 646/1/5 645/1/5
f 652/1/5 646/1/5 651/1/5
f 653/1/5 648/1/5 647/1/5
f 654/1/5 648/1/5 653/1/5
f 657/1/5 656/1/5 655/1/5
f 658/1/5 656/1/5 657/1/5
f 663/1/5 660/1/5 659/1/5
f 664/1/5 660/1/5 663/1/5
f 665/1/5 662/1/5 661/1/5
f 666/1/5 662/1/5 665/1/5
f 671/1/5 668/1/5 667/1/5
f 672/1/5 668/1/5 671/1/5
f 673/1/5 670/1/5 669/1/5
f 674/1/5 670/1/5 673/1/5
f 679/1/5 676/1/5 675/1/5
f 680/1/5 676/1/5 679/1/5
f 681/1/5 678/1/5 677/1/5
f 682/1/5 678/1/5 681/1/5
f 689/1/5 684/1/5 683/1/5
f 690/1/5 684/1/5 689/1/5
f 691/1/5 686/1/5 685/1/5
f 692/1/5 686/1/5 691/1/5
f 693/1/5 688/1/5 687/1/5
f 694/1/5 688/1/5 693/1/5
f 697/1/5 696/1/5 695/1/5
f 698/1/5 696/1/5 697/1/5
f 703/1/5 700/1/5 699/1/5
f 704/1/5 700/1/5 703/1/5
f 705/1/5 702/1/5 701/1/5
f 706/1/5 702/1/5 705/1/5
f 709/1/5 708/1/5 707/1/5
f 710/1/5 708/1/5 709/1/5
f 715/2/5 712/2/5 711/2/5
f 716/2/5 712/2/5 715/2/5
f 717/2/5 714/2/5 713/2/5
f 718/2/5 714/2/5 717/2/5
f 727/2/5 720/2/5 719/2/5
f 728/2/5 720/2/5 727/2/5
f 729/1/5 722/1/5 721/1/5
f 730/1/5 722/1/5 729/1/5
f 731/1/5 724/1/5 723/1/5
f 732/1/5 724/1/5 731/1/5
f 733/2/5 726/2/5 725/2/5
f 734/2/5 726/2/5 733/2/5
f 739/2/5 736/2/5 735/2/5
f 740/2/5 736/2/5 739/2/5
f 741/2/5 738/2/5 737/2/5
f 742/2/5 738/2/5 741/2/5
f 747/2/5 744/2/5 743/2/5
f 748/2/5 744/2/5 747/2/5
f 749/2/5 746/2/5 745/2/5
f 750/2/5 746/2/5 749/2/5
f 753/2/5 752/2/5 751/2/5
f 754/2/5 752/2/5 753/2/5
f 757/2/5 756/2/5 755/2/5
f 758/2/5 756/2/5 757/2/5
f 759/3/6 760/3/6 761/3/6
f 761/3/6 760/3/6 762/3/6
f 759/3/6 761/3/6 763/3/6
f 762/3/6 760/3/6 764/3/6
f 759/3/6 763/3/6 765/3/6
f 763/3/6 764/3/6 765/3/6
f 764/3/6 760/3/6 766/3/6
f 765/3/6 764/3/6 766/3/6
f 767/3/6 768/3/6 769/3/6
f 769/3/6 768/3/6 770/3/6
f 771/3/6 772/3/6 773/3/6
f 773/3/6 772/3/6 774/3/6
f 775/3/6 776/3/6 777/3/6
f 777/3/6 776/3/6 778/3/6
f 775/3/6 777/3/6 779/3/6
f 779/3/6 777/3/6 780/3/6
f 778/3/6 776/3/6 781/3/6
f 781/3/6 776/3/6 782/3/6
f 783/3/6 784/3/6 787/3/6
f 785/3/6 786/3/6 788/3/6
f 783/3/6 787/3/6 789/3/6
f 787/3/6 788/3/6 789/3/6
f 788/3/6 786/3/6 790/3/6
f 789/3/6 788/3/6 790/3/6
f 791/1/6 792/1/6 797/1/6
f 797/1/6 792/1/6 798/1/6
f 793/1/6 794/1/6 799/1/6
f 799/1/6 794/1/6 800/1/6
f 795/1/6 796/1/6 801/1/6
f 801/1/6 796/1/6 802/1/6
f 803/1/6 804/1/6 807/1/6
f 807/1/6 804/1/6 808/1/6
f 805/1/6 806/1/6 809/1/6
f 809/1/6 806/1/6 810/1/6
f 811/1/6 812/1/6 815/1/6
f 815/1/6 812/1/6 816/1/6
f 813/1/6 814/1/6 817/1/6
f 817/1/6 814/1/6 818/1/6
f 819/1/6 820/1/6 823/1/6
f 823/1/6 820/1/6 824/1/6
f 821/1/6 822/1/6 825/1/6
f 825/1/6 822/1/6 826/1/6
f 827/1/6 828/1/6 833/1/6
f 833/1/6 828/1/6 834/1/6
f 829/1/6 830/1/6 835/1/6
f 835/1/6 830/1/6 836/1/6
f 831/1/6 832/1/6 837/1/6
f 837/1/6 832/1/6 838/1/6
f 839/1/6 840/1/6 841/1/6
f 841/1/6 840/1/6 842/1/6
f 843/1/6 844/1/6 847/1/6
f 847/1/6 844/1/6 848/1/6
f 845/1/6 846/1/6 849/1/6
f 849/1/6 846/1/6 850/1/6
f 851/1/6 852/1/6 853/1/6
f 853/1/6 852/1/6 854/1/6
f 855/1/6 856/1/6 859/1/6
f 859/1/6 856/1/6 860/1/6
f 857/1/6 858/1/6 861/1/6
f 861/1/6 858/1/6 862/1/6
f 863/1/6 864/1/6 867/1/6
f 867/1/6 864/1/6 868/1/6
f 865/1/6 866/1/6 869/1/6
f 869/1/6 866/1/6 870/1/6
f 871/1/6 872/1/6 875/1/6
f 875/1/6 872/1/6 876/1/6
f 873/1/6 874/1/6 877/1/6
f 877/1/6 874/1/6 878/1/6
f 879/1/6 880/1/6 881/1/6
f 881/1/6 880/1/6 882/1/6
f 885/1/6 886/1/6 891/1/6
f 891/1/6 886/1/6 892/1/6
f 887/1/6 888/1/6 893/1/6
f 893/1/6 888/1/6 894/1/6
f 883/2/6 884/2/6 897/2/6
f 897/2/6 884/2/6 898/2/6
f 895/1/6 896/1/6 899/1/6
f 899/1/6 896/1/6 900/1/6
f 889/2/6 890/2/6 901/2/6
f 901/2/6 890/2/6 902/2/6
f 903/2/6 904/2/6 907/2/6
f 907/2/6 904/2/6 908/2/6
f 905/2/6 906/2/6 909/2/6
f 909/2/6 906/2/6 910/2/6
f 911/2/6 912/2/6 913/2/6
f 913/2/6 912/2/6 914/2/6
