# MagicaVoxel @ ephtracy

# material
mtllib deco_9.mtl
usemtl palette

# normals
vn -1 0 0
vn 1 0 0
vn 0 0 1
vn 0 0 -1
vn 0 -1 0
vn 0 1 0

# texcoords
vt 0.974609 0.5
vt 0.978516 0.5
vt 0.986328 0.5

# verts
v -8 0 3
v -8 0 -3
v -8 1 3
v -8 1 -3
v -8 4 3
v -8 4 2
v -8 5 2
v -8 5 -3
v -8 6 3
v -8 6 -3
v -8 7 2
v -8 7 -2
v -8 8 3
v -8 8 2
v -8 8 -2
v -8 8 -3
v -7 7 2
v -7 7 -2
v -7 8 2
v -7 8 -2
v -1 0 3
v -1 0 2
v -1 0 -2
v -1 0 -3
v -1 1 3
v -1 1 2
v -1 1 -2
v -1 1 -3
v -1 3 3
v -1 3 2
v -1 3 -2
v -1 3 -3
v -1 4 3
v -1 4 2
v -1 4 -2
v -1 4 -3
v -1 5 2
v -1 5 -2
v -1 7 3
v -1 7 -3
v 5 0 3
v 5 0 2
v 5 0 -2
v 5 0 -3
v 5 1 3
v 5 1 2
v 5 1 -2
v 5 1 -3
v 5 3 3
v 5 3 2
v 5 3 -2
v 5 3 -3
v 5 4 3
v 5 4 2
v 5 4 -2
v 5 4 -3
v 5 5 2
v 5 5 -2
v 5 6 3
v 5 6 -3
v 6 6 3
v 6 6 -3
v 6 8 3
v 6 8 -3
v -6 6 3
v -6 6 -3
v -6 8 3
v -6 8 -3
v -5 0 3
v -5 0 2
v -5 0 -2
v -5 0 -3
v -5 1 3
v -5 1 2
v -5 1 -2
v -5 1 -3
v -5 3 3
v -5 3 2
v -5 3 -2
v -5 3 -3
v -5 4 3
v -5 4 2
v -5 4 -2
v -5 4 -3
v -5 5 2
v -5 5 -2
v -5 6 3
v -5 6 -3
v 1 0 3
v 1 0 2
v 1 0 -2
v 1 0 -3
v 1 1 3
v 1 1 2
v 1 1 -2
v 1 1 -3
v 1 3 3
v 1 3 2
v 1 3 -2
v 1 3 -3
v 1 4 3
v 1 4 2
v 1 4 -2
v 1 4 -3
v 1 5 2
v 1 5 -2
v 1 7 3
v 1 7 -3
v 7 7 2
v 7 7 -2
v 7 8 2
v 7 8 -2
v 8 0 3
v 8 0 -3
v 8 1 3
v 8 1 -3
v 8 4 3
v 8 4 2
v 8 4 -2
v 8 4 -3
v 8 5 2
v 8 5 -2
v 8 6 3
v 8 6 -3
v 8 7 2
v 8 7 -2
v 8 8 3
v 8 8 2
v 8 8 -2
v 8 8 -3
v -8 0 3
v -8 1 3
v -8 4 3
v -8 6 3
v -8 8 3
v -7 3 3
v -7 4 3
v -7 5 3
v -7 6 3
v -6 4 3
v -6 5 3
v -6 6 3
v -6 8 3
v -5 0 3
v -5 1 3
v -5 3 3
v -5 4 3
v -5 6 3
v -1 0 3
v -1 1 3
v -1 3 3
v -1 4 3
v -1 7 3
v 1 0 3
v 1 1 3
v 1 3 3
v 1 4 3
v 1 7 3
v 5 0 3
v 5 1 3
v 5 3 3
v 5 4 3
v 5 6 3
v 6 4 3
v 6 5 3
v 6 6 3
v 6 8 3
v 7 3 3
v 7 4 3
v 7 5 3
v 7 6 3
v 8 0 3
v 8 1 3
v 8 4 3
v 8 6 3
v 8 8 3
v -5 0 2
v -5 1 2
v -5 3 2
v -5 4 2
v -5 5 2
v -1 0 2
v -1 1 2
v -1 3 2
v -1 4 2
v -1 5 2
v 1 0 2
v 1 1 2
v 1 3 2
v 1 4 2
v 1 5 2
v 5 0 2
v 5 1 2
v 5 3 2
v 5 4 2
v 5 5 2
v -8 7 -2
v -8 8 -2
v -7 7 -2
v -7 8 -2
v 7 7 -2
v 7 8 -2
v 8 7 -2
v 8 8 -2
v -8 7 2
v -8 8 2
v -7 7 2
v -7 8 2
v 7 7 2
v 7 8 2
v 8 7 2
v 8 8 2
v -5 0 -2
v -5 1 -2
v -5 3 -2
v -5 4 -2
v -5 5 -2
v -1 0 -2
v -1 1 -2
v -1 3 -2
v -1 4 -2
v -1 5 -2
v 1 0 -2
v 1 1 -2
v 1 3 -2
v 1 4 -2
v 1 5 -2
v 5 0 -2
v 5 1 -2
v 5 3 -2
v 5 4 -2
v 5 5 -2
v -8 0 -3
v -8 1 -3
v -8 5 -3
v -8 6 -3
v -8 8 -3
v -7 4 -3
v -7 5 -3
v -7 6 -3
v -6 3 -3
v -6 4 -3
v -6 5 -3
v -6 6 -3
v -6 8 -3
v -5 0 -3
v -5 1 -3
v -5 3 -3
v -5 4 -3
v -5 6 -3
v -1 0 -3
v -1 1 -3
v -1 3 -3
v -1 4 -3
v -1 7 -3
v 1 0 -3
v 1 1 -3
v 1 3 -3
v 1 4 -3
v 1 7 -3
v 5 0 -3
v 5 1 -3
v 5 3 -3
v 5 4 -3
v 5 6 -3
v 6 4 -3
v 6 5 -3
v 6 6 -3
v 6 8 -3
v 7 3 -3
v 7 4 -3
v 7 5 -3
v 7 6 -3
v 8 0 -3
v 8 1 -3
v 8 4 -3
v 8 6 -3
v 8 8 -3
v -8 0 3
v -5 0 3
v -1 0 3
v 1 0 3
v 5 0 3
v 8 0 3
v -5 0 2
v -1 0 2
v 1 0 2
v 5 0 2
v -5 0 -2
v -1 0 -2
v 1 0 -2
v 5 0 -2
v -8 0 -3
v -5 0 -3
v -1 0 -3
v 1 0 -3
v 5 0 -3
v 8 0 -3
v -5 5 2
v -1 5 2
v 1 5 2
v 5 5 2
v -5 5 -2
v -1 5 -2
v 1 5 -2
v 5 5 -2
v -6 6 3
v -5 6 3
v 5 6 3
v 6 6 3
v -6 6 -3
v -5 6 -3
v 5 6 -3
v 6 6 -3
v -1 7 3
v 1 7 3
v -8 7 2
v -7 7 2
v 7 7 2
v 8 7 2
v -8 7 -2
v -7 7 -2
v 7 7 -2
v 8 7 -2
v -1 7 -3
v 1 7 -3
v -8 8 3
v -6 8 3
v 6 8 3
v 8 8 3
v -8 8 2
v -7 8 2
v 7 8 2
v 8 8 2
v -8 8 -2
v -7 8 -2
v 7 8 -2
v 8 8 -2
v -8 8 -3
v -6 8 -3
v 6 8 -3
v 8 8 -3

# faces
f 3/2/1 2/2/1 1/2/1
f 4/2/1 2/2/1 3/2/1
f 5/3/1 4/3/1 3/3/1
f 6/3/1 4/3/1 5/3/1
f 7/1/1 6/1/1 5/1/1
f 7/3/1 4/3/1 6/3/1
f 8/3/1 4/3/1 7/3/1
f 9/1/1 7/1/1 5/1/1
f 9/1/1 8/1/1 7/1/1
f 10/1/1 8/1/1 9/1/1
f 11/3/1 10/3/1 9/3/1
f 12/3/1 10/3/1 11/3/1
f 13/3/1 11/3/1 9/3/1
f 14/3/1 11/3/1 13/3/1
f 15/3/1 10/3/1 12/3/1
f 16/3/1 10/3/1 15/3/1
f 19/3/1 18/3/1 17/3/1
f 20/3/1 18/3/1 19/3/1
f 25/2/1 22/2/1 21/2/1
f 26/2/1 22/2/1 25/2/1
f 27/2/1 24/2/1 23/2/1
f 28/2/1 24/2/1 27/2/1
f 29/3/1 26/3/1 25/3/1
f 30/3/1 26/3/1 29/3/1
f 31/3/1 28/3/1 27/3/1
f 32/3/1 28/3/1 31/3/1
f 33/1/1 30/1/1 29/1/1
f 34/1/1 30/1/1 33/1/1
f 35/1/1 32/1/1 31/1/1
f 36/1/1 32/1/1 35/1/1
f 37/3/1 34/3/1 33/3/1
f 38/3/1 36/3/1 35/3/1
f 39/3/1 37/3/1 33/3/1
f 39/3/1 38/3/1 37/3/1
f 40/3/1 36/3/1 38/3/1
f 40/3/1 38/3/1 39/3/1
f 45/2/1 42/2/1 41/2/1
f 46/2/1 42/2/1 45/2/1
f 47/2/1 44/2/1 43/2/1
f 48/2/1 44/2/1 47/2/1
f 49/3/1 46/3/1 45/3/1
f 50/3/1 46/3/1 49/3/1
f 51/3/1 48/3/1 47/3/1
f 52/3/1 48/3/1 51/3/1
f 53/1/1 50/1/1 49/1/1
f 54/1/1 50/1/1 53/1/1
f 55/1/1 52/1/1 51/1/1
f 56/1/1 52/1/1 55/1/1
f 57/3/1 54/3/1 53/3/1
f 58/3/1 56/3/1 55/3/1
f 59/3/1 57/3/1 53/3/1
f 59/3/1 58/3/1 57/3/1
f 60/3/1 56/3/1 58/3/1
f 60/3/1 58/3/1 59/3/1
f 63/3/1 62/3/1 61/3/1
f 64/3/1 62/3/1 63/3/1
f 65/3/2 66/3/2 67/3/2
f 67/3/2 66/3/2 68/3/2
f 69/2/2 70/2/2 73/2/2
f 73/2/2 70/2/2 74/2/2
f 71/2/2 72/2/2 75/2/2
f 75/2/2 72/2/2 76/2/2
f 73/3/2 74/3/2 77/3/2
f 77/3/2 74/3/2 78/3/2
f 75/3/2 76/3/2 79/3/2
f 79/3/2 76/3/2 80/3/2
f 77/1/2 78/1/2 81/1/2
f 81/1/2 78/1/2 82/1/2
f 79/1/2 80/1/2 83/1/2
f 83/1/2 80/1/2 84/1/2
f 81/3/2 82/3/2 85/3/2
f 83/3/2 84/3/2 86/3/2
f 81/3/2 85/3/2 87/3/2
f 85/3/2 86/3/2 87/3/2
f 86/3/2 84/3/2 88/3/2
f 87/3/2 86/3/2 88/3/2
f 89/2/2 90/2/2 93/2/2
f 93/2/2 90/2/2 94/2/2
f 91/2/2 92/2/2 95/2/2
f 95/2/2 92/2/2 96/2/2
f 93/3/2 94/3/2 97/3/2
f 97/3/2 94/3/2 98/3/2
f 95/3/2 96/3/2 99/3/2
f 99/3/2 96/3/2 100/3/2
f 97/1/2 98/1/2 101/1/2
f 101/1/2 98/1/2 102/1/2
f 99/1/2 100/1/2 103/1/2
f 103/1/2 100/1/2 104/1/2
f 101/3/2 102/3/2 105/3/2
f 103/3/2 104/3/2 106/3/2
f 101/3/2 105/3/2 107/3/2
f 105/3/2 106/3/2 107/3/2
f 106/3/2 104/3/2 108/3/2
f 107/3/2 106/3/2 108/3/2
f 109/3/2 110/3/2 111/3/2
f 111/3/2 110/3/2 112/3/2
f 113/2/2 114/2/2 115/2/2
f 115/2/2 114/2/2 116/2/2
f 115/3/2 116/3/2 117/3/2
f 117/3/2 116/3/2 118/3/2
f 118/3/2 116/3/2 119/3/2
f 119/3/2 116/3/2 120/3/2
f 117/1/2 118/1/2 121/1/2
f 118/3/2 119/3/2 121/3/2
f 119/1/2 120/1/2 122/1/2
f 121/3/2 119/3/2 122/3/2
f 117/1/2 121/1/2 123/1/2
f 121/1/2 122/1/2 123/1/2
f 122/1/2 120/1/2 124/1/2
f 123/1/2 122/1/2 124/1/2
f 123/3/2 124/3/2 125/3/2
f 125/3/2 124/3/2 126/3/2
f 123/3/2 125/3/2 127/3/2
f 127/3/2 125/3/2 128/3/2
f 126/3/2 124/3/2 129/3/2
f 129/3/2 124/3/2 130/3/2
f 136/3/3 133/3/3 132/3/3
f 137/1/3 134/1/3 133/1/3
f 137/3/3 133/3/3 136/3/3
f 138/1/3 134/1/3 137/1/3
f 139/3/3 135/3/3 134/3/3
f 139/1/3 134/1/3 138/1/3
f 140/1/3 138/1/3 137/1/3
f 140/1/3 137/1/3 136/1/3
f 141/3/3 139/3/3 138/3/3
f 141/1/3 138/1/3 140/1/3
f 142/3/3 135/3/3 139/3/3
f 142/3/3 139/3/3 141/3/3
f 143/3/3 135/3/3 142/3/3
f 144/2/3 132/2/3 131/2/3
f 145/3/3 136/3/3 132/3/3
f 145/2/3 132/2/3 144/2/3
f 146/1/3 140/1/3 136/1/3
f 146/3/3 136/3/3 145/3/3
f 147/3/3 141/3/3 140/3/3
f 147/1/3 140/1/3 146/1/3
f 147/3/3 142/3/3 141/3/3
f 148/3/3 142/3/3 147/3/3
f 154/2/3 150/2/3 149/2/3
f 155/3/3 151/3/3 150/3/3
f 155/2/3 150/2/3 154/2/3
f 156/1/3 152/1/3 151/1/3
f 156/3/3 151/3/3 155/3/3
f 157/3/3 153/3/3 152/3/3
f 157/1/3 152/1/3 156/1/3
f 158/3/3 153/3/3 157/3/3
f 164/1/3 162/1/3 161/1/3
f 164/3/3 163/3/3 162/3/3
f 165/3/3 163/3/3 164/3/3
f 166/3/3 163/3/3 165/3/3
f 168/3/3 161/3/3 160/3/3
f 168/1/3 164/1/3 161/1/3
f 168/1/3 165/1/3 164/1/3
f 169/1/3 165/1/3 168/1/3
f 170/3/3 166/3/3 165/3/3
f 170/1/3 165/1/3 169/1/3
f 170/3/3 167/3/3 166/3/3
f 171/3/3 167/3/3 170/3/3
f 172/2/3 160/2/3 159/2/3
f 173/3/3 169/3/3 168/3/3
f 173/2/3 160/2/3 172/2/3
f 173/3/3 168/3/3 160/3/3
f 174/1/3 171/1/3 170/1/3
f 174/3/3 169/3/3 173/3/3
f 174/1/3 170/1/3 169/1/3
f 175/3/3 167/3/3 171/3/3
f 175/1/3 171/1/3 174/1/3
f 176/3/3 167/3/3 175/3/3
f 182/2/3 178/2/3 177/2/3
f 183/3/3 179/3/3 178/3/3
f 183/2/3 178/2/3 182/2/3
f 184/1/3 180/1/3 179/1/3
f 184/3/3 179/3/3 183/3/3
f 185/3/3 181/3/3 180/3/3
f 185/1/3 180/1/3 184/1/3
f 186/3/3 181/3/3 185/3/3
f 192/2/3 188/2/3 187/2/3
f 193/3/3 189/3/3 188/3/3
f 193/2/3 188/2/3 192/2/3
f 194/1/3 190/1/3 189/1/3
f 194/3/3 189/3/3 193/3/3
f 195/3/3 191/3/3 190/3/3
f 195/1/3 190/1/3 194/1/3
f 196/3/3 191/3/3 195/3/3
f 199/3/3 198/3/3 197/3/3
f 200/3/3 198/3/3 199/3/3
f 203/3/3 202/3/3 201/3/3
f 204/3/3 202/3/3 203/3/3
f 205/3/4 206/3/4 207/3/4
f 207/3/4 206/3/4 208/3/4
f 209/3/4 210/3/4 211/3/4
f 211/3/4 210/3/4 212/3/4
f 213/2/4 214/2/4 218/2/4
f 214/3/4 215/3/4 219/3/4
f 218/2/4 214/2/4 219/2/4
f 215/1/4 216/1/4 220/1/4
f 219/3/4 215/3/4 220/3/4
f 216/3/4 217/3/4 221/3/4
f 220/1/4 216/1/4 221/1/4
f 221/3/4 217/3/4 222/3/4
f 223/2/4 224/2/4 228/2/4
f 224/3/4 225/3/4 229/3/4
f 228/2/4 224/2/4 229/2/4
f 225/1/4 226/1/4 230/1/4
f 229/3/4 225/3/4 230/3/4
f 226/3/4 227/3/4 231/3/4
f 230/1/4 226/1/4 231/1/4
f 231/3/4 227/3/4 232/3/4
f 234/3/4 235/3/4 238/3/4
f 235/1/4 236/1/4 239/1/4
f 238/3/4 235/3/4 239/3/4
f 236/3/4 237/3/4 240/3/4
f 239/1/4 236/1/4 240/1/4
f 234/3/4 238/3/4 241/3/4
f 238/1/4 239/1/4 242/1/4
f 241/3/4 238/3/4 242/3/4
f 239/3/4 240/3/4 243/3/4
f 242/1/4 239/1/4 243/1/4
f 240/3/4 237/3/4 244/3/4
f 243/3/4 240/3/4 244/3/4
f 244/3/4 237/3/4 245/3/4
f 233/2/4 234/2/4 246/2/4
f 234/3/4 241/3/4 247/3/4
f 246/2/4 234/2/4 247/2/4
f 241/1/4 242/1/4 248/1/4
f 247/3/4 241/3/4 248/3/4
f 242/3/4 243/3/4 249/3/4
f 248/1/4 242/1/4 249/1/4
f 243/3/4 244/3/4 249/3/4
f 249/3/4 244/3/4 250/3/4
f 251/2/4 252/2/4 256/2/4
f 252/3/4 253/3/4 257/3/4
f 256/2/4 252/2/4 257/2/4
f 253/1/4 254/1/4 258/1/4
f 257/3/4 253/3/4 258/3/4
f 254/3/4 255/3/4 259/3/4
f 258/1/4 254/1/4 259/1/4
f 259/3/4 255/3/4 260/3/4
f 263/1/4 264/1/4 266/1/4
f 264/3/4 265/3/4 266/3/4
f 266/3/4 265/3/4 267/3/4
f 267/3/4 265/3/4 268/3/4
f 262/3/4 263/3/4 270/3/4
f 263/1/4 266/1/4 270/1/4
f 266/1/4 267/1/4 270/1/4
f 270/1/4 267/1/4 271/1/4
f 267/3/4 268/3/4 272/3/4
f 271/1/4 267/1/4 272/1/4
f 268/3/4 269/3/4 272/3/4
f 272/3/4 269/3/4 273/3/4
f 261/2/4 262/2/4 274/2/4
f 270/3/4 271/3/4 275/3/4
f 274/2/4 262/2/4 275/2/4
f 262/3/4 270/3/4 275/3/4
f 272/1/4 273/1/4 276/1/4
f 275/3/4 271/3/4 276/3/4
f 271/1/4 272/1/4 276/1/4
f 273/3/4 269/3/4 277/3/4
f 276/1/4 273/1/4 277/1/4
f 277/3/4 269/3/4 278/3/4
f 285/2/5 280/2/5 279/2/5
f 286/2/5 282/2/5 281/2/5
f 287/2/5 282/2/5 286/2/5
f 288/2/5 284/2/5 283/2/5
f 289/2/5 287/2/5 286/2/5
f 289/2/5 288/2/5 287/2/5
f 289/2/5 285/2/5 279/2/5
f 289/2/5 286/2/5 285/2/5
f 290/2/5 288/2/5 289/2/5
f 291/2/5 288/2/5 290/2/5
f 292/2/5 284/2/5 288/2/5
f 292/2/5 288/2/5 291/2/5
f 293/2/5 289/2/5 279/2/5
f 294/2/5 289/2/5 293/2/5
f 295/2/5 291/2/5 290/2/5
f 296/2/5 291/2/5 295/2/5
f 297/2/5 284/2/5 292/2/5
f 298/2/5 284/2/5 297/2/5
f 299/3/6 300/3/6 303/3/6
f 303/3/6 300/3/6 304/3/6
f 301/3/6 302/3/6 305/3/6
f 305/3/6 302/3/6 306/3/6
f 307/3/6 308/3/6 311/3/6
f 311/3/6 308/3/6 312/3/6
f 309/3/6 310/3/6 313/3/6
f 313/3/6 310/3/6 314/3/6
f 317/3/6 318/3/6 321/3/6
f 321/3/6 318/3/6 322/3/6
f 319/3/6 320/3/6 323/3/6
f 323/3/6 320/3/6 324/3/6
f 315/3/6 316/3/6 325/3/6
f 325/3/6 316/3/6 326/3/6
f 327/3/6 328/3/6 331/3/6
f 331/3/6 328/3/6 332/3/6
f 329/3/6 330/3/6 333/3/6
f 333/3/6 330/3/6 334/3/6
f 332/3/6 328/3/6 336/3/6
f 329/3/6 333/3/6 337/3/6
f 335/3/6 336/3/6 339/3/6
f 336/3/6 328/3/6 340/3/6
f 339/3/6 336/3/6 340/3/6
f 337/3/6 338/3/6 341/3/6
f 329/3/6 337/3/6 341/3/6
f 341/3/6 338/3/6 342/3/6
