# MagicaVoxel @ ephtracy

# material
mtllib eye_open.mtl
usemtl palette

# normals
vn -1 0 0
vn 1 0 0
vn 0 0 1
vn 0 0 -1
vn 0 -1 0
vn 0 1 0

# texcoords
vt 0.841797 0.5
vt 0.958984 0.5
vt 0.982422 0.5
vt 0.990234 0.5
vt 0.994141 0.5

# verts
v -4 2 2
v -4 2 -2
v -4 6 2
v -4 6 -2
v -3 1 3
v -3 1 -3
v -3 2 2
v -3 2 -2
v -3 6 2
v -3 6 -2
v -3 7 3
v -3 7 -3
v -2 0 2
v -2 0 -2
v -2 1 2
v -2 1 -2
v -2 2 4
v -2 2 3
v -2 2 -3
v -2 2 -4
v -2 6 4
v -2 6 3
v -2 6 -3
v -2 6 -4
v -2 7 2
v -2 7 -2
v -2 8 2
v -2 8 -2
v 2 0 2
v 2 0 -2
v 2 1 2
v 2 1 -2
v 2 2 4
v 2 2 3
v 2 2 -3
v 2 2 -4
v 2 3 4
v 2 3 3
v 2 3 -3
v 2 3 -4
v 2 5 4
v 2 5 3
v 2 5 -3
v 2 5 -4
v 2 6 4
v 2 6 3
v 2 6 -3
v 2 6 -4
v 2 7 2
v 2 7 -2
v 2 8 2
v 2 8 -2
v 3 1 3
v 3 1 2
v 3 1 -2
v 3 1 -3
v 3 2 3
v 3 2 2
v 3 2 -2
v 3 2 -3
v 3 3 3
v 3 3 2
v 3 3 -2
v 3 3 -3
v 3 5 3
v 3 5 2
v 3 5 -2
v 3 5 -3
v 3 6 3
v 3 6 2
v 3 6 -2
v 3 6 -3
v 3 7 3
v 3 7 2
v 3 7 -2
v 3 7 -3
v 4 2 2
v 4 2 -2
v 4 3 1
v 4 3 -0
v 4 3 -1
v 4 4 -0
v 4 4 -1
v 4 5 1
v 4 5 -0
v 4 5 -1
v 4 6 2
v 4 6 -2
v -2 2 4
v -2 6 4
v 0 3 4
v 0 5 4
v 1 2 4
v 1 3 4
v 1 5 4
v 1 6 4
v 2 2 4
v 2 3 4
v 2 5 4
v 2 6 4
v -3 1 3
v -3 7 3
v -2 2 3
v -2 6 3
v 1 2 3
v 1 6 3
v 2 1 3
v 2 2 3
v 2 3 3
v 2 5 3
v 2 6 3
v 2 7 3
v 3 1 3
v 3 2 3
v 3 3 3
v 3 5 3
v 3 6 3
v 3 7 3
v -4 2 2
v -4 6 2
v -3 2 2
v -3 6 2
v -2 0 2
v -2 1 2
v -2 7 2
v -2 8 2
v 1 0 2
v 1 1 2
v 1 7 2
v 1 8 2
v 2 0 2
v 2 1 2
v 2 7 2
v 2 8 2
v 3 2 2
v 3 3 2
v 3 5 2
v 3 6 2
v 4 2 2
v 4 6 2
v -4 2 -2
v -4 6 -2
v -3 2 -2
v -3 6 -2
v -2 0 -2
v -2 1 -2
v -2 7 -2
v -2 8 -2
v 1 0 -2
v 1 1 -2
v 1 7 -2
v 1 8 -2
v 2 0 -2
v 2 1 -2
v 2 7 -2
v 2 8 -2
v 3 2 -2
v 3 3 -2
v 3 5 -2
v 3 6 -2
v 4 2 -2
v 4 6 -2
v -3 1 -3
v -3 7 -3
v -2 2 -3
v -2 6 -3
v 1 2 -3
v 1 6 -3
v 2 1 -3
v 2 2 -3
v 2 3 -3
v 2 5 -3
v 2 6 -3
v 2 7 -3
v 3 1 -3
v 3 2 -3
v 3 3 -3
v 3 5 -3
v 3 6 -3
v 3 7 -3
v -2 2 -4
v -2 6 -4
v 0 3 -4
v 0 5 -4
v 1 2 -4
v 1 3 -4
v 1 5 -4
v 1 6 -4
v 2 2 -4
v 2 3 -4
v 2 5 -4
v 2 6 -4
v -2 0 2
v 1 0 2
v 2 0 2
v -2 0 -2
v 1 0 -2
v 2 0 -2
v -3 1 3
v 2 1 3
v 3 1 3
v -2 1 2
v 1 1 2
v 2 1 2
v 3 1 2
v -2 1 -2
v 1 1 -2
v 2 1 -2
v 3 1 -2
v -3 1 -3
v 2 1 -3
v 3 1 -3
v -2 2 4
v 1 2 4
v 2 2 4
v -2 2 3
v 1 2 3
v 2 2 3
v -4 2 2
v -3 2 2
v 3 2 2
v 4 2 2
v -4 2 -2
v -3 2 -2
v 3 2 -2
v 4 2 -2
v -2 2 -3
v 1 2 -3
v 2 2 -3
v -2 2 -4
v 1 2 -4
v 2 2 -4
v -2 6 4
v 1 6 4
v 2 6 4
v -2 6 3
v 1 6 3
v 2 6 3
v -4 6 2
v -3 6 2
v 3 6 2
v 4 6 2
v -4 6 -2
v -3 6 -2
v 3 6 -2
v 4 6 -2
v -2 6 -3
v 1 6 -3
v 2 6 -3
v -2 6 -4
v 1 6 -4
v 2 6 -4
v -3 7 3
v 2 7 3
v 3 7 3
v -2 7 2
v 1 7 2
v 2 7 2
v 3 7 2
v -2 7 -2
v 1 7 -2
v 2 7 -2
v 3 7 -2
v -3 7 -3
v 2 7 -3
v 3 7 -3
v -2 8 2
v 1 8 2
v 2 8 2
v -2 8 -2
v 1 8 -2
v 2 8 -2

# faces
f 3/3/1 2/3/1 1/3/1
f 4/3/1 2/3/1 3/3/1
f 7/3/1 6/3/1 5/3/1
f 8/3/1 6/3/1 7/3/1
f 9/3/1 7/3/1 5/3/1
f 10/3/1 6/3/1 8/3/1
f 11/3/1 9/3/1 5/3/1
f 11/3/1 10/3/1 9/3/1
f 12/3/1 6/3/1 10/3/1
f 12/3/1 10/3/1 11/3/1
f 15/3/1 14/3/1 13/3/1
f 16/3/1 14/3/1 15/3/1
f 21/3/1 18/3/1 17/3/1
f 22/3/1 18/3/1 21/3/1
f 23/3/1 20/3/1 19/3/1
f 24/3/1 20/3/1 23/3/1
f 27/3/1 26/3/1 25/3/1
f 28/3/1 26/3/1 27/3/1
f 29/4/2 30/4/2 31/4/2
f 31/4/2 30/4/2 32/4/2
f 33/4/2 34/4/2 37/4/2
f 37/4/2 34/4/2 38/4/2
f 35/4/2 36/4/2 39/4/2
f 39/4/2 36/4/2 40/4/2
f 37/2/2 38/2/2 41/2/2
f 41/2/2 38/2/2 42/2/2
f 39/2/2 40/2/2 43/2/2
f 43/2/2 40/2/2 44/2/2
f 41/4/2 42/4/2 45/4/2
f 45/4/2 42/4/2 46/4/2
f 43/4/2 44/4/2 47/4/2
f 47/4/2 44/4/2 48/4/2
f 49/4/2 50/4/2 51/4/2
f 51/4/2 50/4/2 52/4/2
f 53/4/2 54/4/2 57/4/2
f 54/2/2 55/2/2 58/2/2
f 57/4/2 54/4/2 58/4/2
f 55/4/2 56/4/2 59/4/2
f 58/2/2 55/2/2 59/2/2
f 59/4/2 56/4/2 60/4/2
f 57/2/2 58/2/2 61/2/2
f 61/2/2 58/2/2 62/2/2
f 59/2/2 60/2/2 63/2/2
f 63/2/2 60/2/2 64/2/2
f 61/1/2 62/1/2 65/1/2
f 65/1/2 62/1/2 66/1/2
f 63/1/2 64/1/2 67/1/2
f 67/1/2 64/1/2 68/1/2
f 65/2/2 66/2/2 69/2/2
f 69/2/2 66/2/2 70/2/2
f 67/2/2 68/2/2 71/2/2
f 71/2/2 68/2/2 72/2/2
f 69/4/2 70/4/2 73/4/2
f 70/2/2 71/2/2 74/2/2
f 73/4/2 70/4/2 74/4/2
f 71/4/2 72/4/2 75/4/2
f 74/2/2 71/2/2 75/2/2
f 75/4/2 72/4/2 76/4/2
f 77/1/2 78/1/2 79/1/2
f 79/1/2 78/1/2 80/1/2
f 80/1/2 78/1/2 81/1/2
f 79/5/2 80/5/2 82/5/2
f 80/2/2 81/2/2 82/2/2
f 81/1/2 78/1/2 83/1/2
f 82/2/2 81/2/2 83/2/2
f 77/1/2 79/1/2 84/1/2
f 79/5/2 82/5/2 84/5/2
f 82/3/2 83/3/2 85/3/2
f 84/5/2 82/5/2 85/5/2
f 83/1/2 78/1/2 86/1/2
f 85/3/2 83/3/2 86/3/2
f 84/1/2 85/1/2 87/1/2
f 77/1/2 84/1/2 87/1/2
f 85/1/2 86/1/2 87/1/2
f 86/1/2 78/1/2 88/1/2
f 87/1/2 86/1/2 88/1/2
f 91/3/3 90/3/3 89/3/3
f 92/3/3 90/3/3 91/3/3
f 93/3/3 91/3/3 89/3/3
f 94/4/3 92/4/3 91/4/3
f 94/3/3 91/3/3 93/3/3
f 95/3/3 90/3/3 92/3/3
f 95/4/3 92/4/3 94/4/3
f 96/3/3 90/3/3 95/3/3
f 97/4/3 94/4/3 93/4/3
f 98/2/3 95/2/3 94/2/3
f 98/4/3 94/4/3 97/4/3
f 99/4/3 96/4/3 95/4/3
f 99/2/3 95/2/3 98/2/3
f 100/4/3 96/4/3 99/4/3
f 103/3/3 102/3/3 101/3/3
f 104/3/3 102/3/3 103/3/3
f 105/3/3 103/3/3 101/3/3
f 106/3/3 102/3/3 104/3/3
f 107/3/3 105/3/3 101/3/3
f 108/3/3 105/3/3 107/3/3
f 111/3/3 102/3/3 106/3/3
f 112/3/3 102/3/3 111/3/3
f 113/4/3 108/4/3 107/4/3
f 114/2/3 109/2/3 108/2/3
f 114/4/3 108/4/3 113/4/3
f 115/1/3 110/1/3 109/1/3
f 115/2/3 109/2/3 114/2/3
f 116/2/3 111/2/3 110/2/3
f 116/1/3 110/1/3 115/1/3
f 117/4/3 112/4/3 111/4/3
f 117/2/3 111/2/3 116/2/3
f 118/4/3 112/4/3 117/4/3
f 121/3/3 120/3/3 119/3/3
f 122/3/3 120/3/3 121/3/3
f 127/3/3 124/3/3 123/3/3
f 128/3/3 124/3/3 127/3/3
f 129/3/3 126/3/3 125/3/3
f 130/3/3 126/3/3 129/3/3
f 131/4/3 128/4/3 127/4/3
f 132/4/3 128/4/3 131/4/3
f 133/4/3 130/4/3 129/4/3
f 134/4/3 130/4/3 133/4/3
f 139/1/3 136/1/3 135/1/3
f 139/1/3 138/1/3 137/1/3
f 139/1/3 137/1/3 136/1/3
f 140/1/3 138/1/3 139/1/3
f 141/3/4 142/3/4 143/3/4
f 143/3/4 142/3/4 144/3/4
f 145/3/4 146/3/4 149/3/4
f 149/3/4 146/3/4 150/3/4
f 147/3/4 148/3/4 151/3/4
f 151/3/4 148/3/4 152/3/4
f 149/4/4 150/4/4 153/4/4
f 153/4/4 150/4/4 154/4/4
f 151/4/4 152/4/4 155/4/4
f 155/4/4 152/4/4 156/4/4
f 157/1/4 158/1/4 161/1/4
f 159/1/4 160/1/4 161/1/4
f 158/1/4 159/1/4 161/1/4
f 161/1/4 160/1/4 162/1/4
f 163/3/4 164/3/4 165/3/4
f 165/3/4 164/3/4 166/3/4
f 163/3/4 165/3/4 167/3/4
f 166/3/4 164/3/4 168/3/4
f 163/3/4 167/3/4 169/3/4
f 169/3/4 167/3/4 170/3/4
f 168/3/4 164/3/4 173/3/4
f 173/3/4 164/3/4 174/3/4
f 169/4/4 170/4/4 175/4/4
f 170/2/4 171/2/4 176/2/4
f 175/4/4 170/4/4 176/4/4
f 171/1/4 172/1/4 177/1/4
f 176/2/4 171/2/4 177/2/4
f 172/2/4 173/2/4 178/2/4
f 177/1/4 172/1/4 178/1/4
f 173/4/4 174/4/4 179/4/4
f 178/2/4 173/2/4 179/2/4
f 179/4/4 174/4/4 180/4/4
f 181/3/4 182/3/4 183/3/4
f 183/3/4 182/3/4 184/3/4
f 181/3/4 183/3/4 185/3/4
f 183/4/4 184/4/4 186/4/4
f 185/3/4 183/3/4 186/3/4
f 184/3/4 182/3/4 187/3/4
f 186/4/4 184/4/4 187/4/4
f 187/3/4 182/3/4 188/3/4
f 185/4/4 186/4/4 189/4/4
f 186/2/4 187/2/4 190/2/4
f 189/4/4 186/4/4 190/4/4
f 187/4/4 188/4/4 191/4/4
f 190/2/4 187/2/4 191/2/4
f 191/4/4 188/4/4 192/4/4
f 196/3/5 194/3/5 193/3/5
f 197/4/5 195/4/5 194/4/5
f 197/3/5 194/3/5 196/3/5
f 198/4/5 195/4/5 197/4/5
f 202/3/5 200/3/5 199/3/5
f 203/3/5 200/3/5 202/3/5
f 204/4/5 201/4/5 200/4/5
f 204/3/5 200/3/5 203/3/5
f 205/4/5 201/4/5 204/4/5
f 206/3/5 202/3/5 199/3/5
f 208/2/5 205/2/5 204/2/5
f 209/2/5 205/2/5 208/2/5
f 210/3/5 207/3/5 206/3/5
f 210/3/5 206/3/5 199/3/5
f 210/3/5 208/3/5 207/3/5
f 211/4/5 209/4/5 208/4/5
f 211/3/5 208/3/5 210/3/5
f 212/4/5 209/4/5 211/4/5
f 216/3/5 214/3/5 213/3/5
f 217/4/5 215/4/5 214/4/5
f 217/3/5 214/3/5 216/3/5
f 218/4/5 215/4/5 217/4/5
f 223/3/5 220/3/5 219/3/5
f 224/3/5 220/3/5 223/3/5
f 225/1/5 222/1/5 221/1/5
f 226/1/5 222/1/5 225/1/5
f 230/3/5 228/3/5 227/3/5
f 231/4/5 229/4/5 228/4/5
f 231/3/5 228/3/5 230/3/5
f 232/4/5 229/4/5 231/4/5
f 233/3/6 234/3/6 236/3/6
f 234/4/6 235/4/6 237/4/6
f 236/3/6 234/3/6 237/3/6
f 237/4/6 235/4/6 238/4/6
f 239/3/6 240/3/6 243/3/6
f 243/3/6 240/3/6 244/3/6
f 241/1/6 242/1/6 245/1/6
f 245/1/6 242/1/6 246/1/6
f 247/3/6 248/3/6 250/3/6
f 248/4/6 249/4/6 251/4/6
f 250/3/6 248/3/6 251/3/6
f 251/4/6 249/4/6 252/4/6
f 253/3/6 254/3/6 256/3/6
f 256/3/6 254/3/6 257/3/6
f 254/4/6 255/4/6 258/4/6
f 257/3/6 254/3/6 258/3/6
f 258/4/6 255/4/6 259/4/6
f 253/3/6 256/3/6 260/3/6
f 258/2/6 259/2/6 262/2/6
f 262/2/6 259/2/6 263/2/6
f 260/3/6 261/3/6 264/3/6
f 253/3/6 260/3/6 264/3/6
f 261/3/6 262/3/6 264/3/6
f 262/4/6 263/4/6 265/4/6
f 264/3/6 262/3/6 265/3/6
f 265/4/6 263/4/6 266/4/6
f 267/3/6 268/3/6 270/3/6
f 268/4/6 269/4/6 271/4/6
f 270/3/6 268/3/6 271/3/6
f 271/4/6 269/4/6 272/4/6
