# MagicaVoxel @ ephtracy

# material
mtllib floor_2_2.mtl
usemtl palette

# normals
vn -1 0 0
vn 1 0 0
vn 0 0 1
vn 0 0 -1
vn 0 -1 0
vn 0 1 0

# texcoords
vt 0.974609 0.5
vt 0.978516 0.5
vt 0.982422 0.5

# verts
v -16 0 16
v -16 0 -16
v -16 16 16
v -16 16 -16
v 16 0 16
v 16 0 -16
v 16 16 16
v 16 16 -16
v -16 0 16
v -16 16 16
v 16 0 16
v 16 16 16
v -16 0 -16
v -16 16 -16
v 16 0 -16
v 16 16 -16
v -16 0 16
v 16 0 16
v -16 0 -16
v 16 0 -16
v -16 16 16
v 16 16 16
v -15 16 15
v -1 16 15
v 1 16 15
v 15 16 15
v -14 16 14
v -2 16 14
v 2 16 14
v 14 16 14
v -14 16 2
v -2 16 2
v 2 16 2
v 14 16 2
v -15 16 1
v -1 16 1
v 1 16 1
v 15 16 1
v -15 16 -1
v -1 16 -1
v 1 16 -1
v 15 16 -1
v -14 16 -2
v -2 16 -2
v 2 16 -2
v 14 16 -2
v -14 16 -14
v -2 16 -14
v 2 16 -14
v 14 16 -14
v -15 16 -15
v -1 16 -15
v 1 16 -15
v 15 16 -15
v -16 16 -16
v 16 16 -16

# faces
f 3/3/1 2/3/1 1/3/1
f 4/3/1 2/3/1 3/3/1
f 5/3/2 6/3/2 7/3/2
f 7/3/2 6/3/2 8/3/2
f 11/3/3 10/3/3 9/3/3
f 12/3/3 10/3/3 11/3/3
f 13/3/4 14/3/4 15/3/4
f 15/3/4 14/3/4 16/3/4
f 19/3/5 18/3/5 17/3/5
f 20/3/5 18/3/5 19/3/5
f 21/3/6 22/3/6 23/3/6
f 23/3/6 22/3/6 24/3/6
f 24/3/6 22/3/6 25/3/6
f 25/3/6 22/3/6 26/3/6
f 23/2/6 24/2/6 27/2/6
f 27/2/6 24/2/6 28/2/6
f 25/2/6 26/2/6 29/2/6
f 29/2/6 26/2/6 30/2/6
f 23/2/6 27/2/6 31/2/6
f 27/1/6 28/1/6 31/1/6
f 28/2/6 24/2/6 32/2/6
f 31/1/6 28/1/6 32/1/6
f 29/1/6 30/1/6 33/1/6
f 25/2/6 29/2/6 33/2/6
f 30/2/6 26/2/6 34/2/6
f 33/1/6 30/1/6 34/1/6
f 21/3/6 23/3/6 35/3/6
f 23/2/6 31/2/6 35/2/6
f 31/2/6 32/2/6 35/2/6
f 24/3/6 25/3/6 36/3/6
f 35/2/6 32/2/6 36/2/6
f 32/2/6 24/2/6 36/2/6
f 33/2/6 34/2/6 37/2/6
f 36/3/6 25/3/6 37/3/6
f 25/2/6 33/2/6 37/2/6
f 34/2/6 26/2/6 38/2/6
f 37/2/6 34/2/6 38/2/6
f 26/3/6 22/3/6 38/3/6
f 36/3/6 37/3/6 39/3/6
f 35/3/6 36/3/6 39/3/6
f 37/3/6 38/3/6 39/3/6
f 21/3/6 35/3/6 39/3/6
f 39/3/6 38/3/6 40/3/6
f 40/3/6 38/3/6 41/3/6
f 38/3/6 22/3/6 42/3/6
f 41/3/6 38/3/6 42/3/6
f 39/2/6 40/2/6 43/2/6
f 43/2/6 40/2/6 44/2/6
f 41/2/6 42/2/6 45/2/6
f 45/2/6 42/2/6 46/2/6
f 39/2/6 43/2/6 47/2/6
f 43/1/6 44/1/6 47/1/6
f 44/2/6 40/2/6 48/2/6
f 47/1/6 44/1/6 48/1/6
f 45/1/6 46/1/6 49/1/6
f 41/2/6 45/2/6 49/2/6
f 46/2/6 42/2/6 50/2/6
f 49/1/6 46/1/6 50/1/6
f 21/3/6 39/3/6 51/3/6
f 39/2/6 47/2/6 51/2/6
f 47/2/6 48/2/6 51/2/6
f 40/3/6 41/3/6 52/3/6
f 51/2/6 48/2/6 52/2/6
f 48/2/6 40/2/6 52/2/6
f 49/2/6 50/2/6 53/2/6
f 52/3/6 41/3/6 53/3/6
f 41/2/6 49/2/6 53/2/6
f 50/2/6 42/2/6 54/2/6
f 53/2/6 50/2/6 54/2/6
f 42/3/6 22/3/6 54/3/6
f 21/3/6 51/3/6 55/3/6
f 52/3/6 53/3/6 55/3/6
f 53/3/6 54/3/6 55/3/6
f 51/3/6 52/3/6 55/3/6
f 54/3/6 22/3/6 56/3/6
f 55/3/6 54/3/6 56/3/6
