# MagicaVoxel @ ephtracy

# material
mtllib path_5.mtl
usemtl palette

# normals
vn -1 0 0
vn 1 0 0
vn 0 0 1
vn 0 0 -1
vn 0 -1 0
vn 0 1 0

# texcoords
vt 0.958984 0.5
vt 0.970703 0.5
vt 0.974609 0.5
vt 0.978516 0.5
vt 0.982422 0.5

# verts
v -16 32 40
v -16 32 -40
v -16 37 40
v -16 37 -40
v -16 38 40
v -16 38 -40
v -16 39 40
v -16 39 -40
v -16 41 40
v -16 41 -40
v -16 42 40
v -16 42 -40
v -16 43 40
v -16 43 -40
v -16 48 40
v -16 48 -40
v -15 37 39
v -15 37 -39
v -15 38 39
v -15 38 -39
v -15 39 39
v -15 39 -39
v -15 41 39
v -15 41 -39
v -15 42 39
v -15 42 -39
v -15 43 39
v -15 43 -39
v -8 0 8
v -8 0 -8
v -8 2 8
v -8 2 -8
v -8 30 8
v -8 30 -8
v -8 32 8
v -8 32 -8
v -7 2 7
v -7 2 -7
v -7 3 7
v -7 3 -7
v -7 29 7
v -7 29 -7
v -7 30 7
v -7 30 -7
v -6 3 6
v -6 3 -6
v -6 5 6
v -6 5 -6
v -6 14 6
v -6 14 -6
v -6 15 6
v -6 15 -6
v -6 17 6
v -6 17 -6
v -6 18 6
v -6 18 -6
v -6 27 6
v -6 27 -6
v -6 29 6
v -6 29 -6
v -5 5 5
v -5 5 -5
v -5 14 5
v -5 14 -5
v -5 15 5
v -5 15 -5
v -5 17 5
v -5 17 -5
v -5 18 5
v -5 18 -5
v -5 27 5
v -5 27 -5
v 5 5 5
v 5 5 -5
v 5 14 5
v 5 14 -5
v 5 15 5
v 5 15 -5
v 5 17 5
v 5 17 -5
v 5 18 5
v 5 18 -5
v 5 27 5
v 5 27 -5
v 6 3 6
v 6 3 -6
v 6 5 6
v 6 5 -6
v 6 14 6
v 6 14 -6
v 6 15 6
v 6 15 -6
v 6 17 6
v 6 17 -6
v 6 18 6
v 6 18 -6
v 6 27 6
v 6 27 -6
v 6 29 6
v 6 29 -6
v 7 2 7
v 7 2 -7
v 7 3 7
v 7 3 -7
v 7 29 7
v 7 29 -7
v 7 30 7
v 7 30 -7
v 8 0 8
v 8 0 -8
v 8 2 8
v 8 2 -8
v 8 30 8
v 8 30 -8
v 8 32 8
v 8 32 -8
v 15 37 39
v 15 37 -39
v 15 38 39
v 15 38 -39
v 15 39 39
v 15 39 -39
v 15 41 39
v 15 41 -39
v 15 42 39
v 15 42 -39
v 15 43 39
v 15 43 -39
v 16 32 40
v 16 32 -40
v 16 37 40
v 16 37 -40
v 16 38 40
v 16 38 -40
v 16 39 40
v 16 39 -40
v 16 41 40
v 16 41 -40
v 16 42 40
v 16 42 -40
v 16 43 40
v 16 43 -40
v 16 48 40
v 16 48 -40
v -16 32 40
v -16 37 40
v -16 38 40
v -16 39 40
v -16 41 40
v -16 42 40
v -16 43 40
v -16 48 40
v 16 32 40
v 16 37 40
v 16 38 40
v 16 39 40
v 16 41 40
v 16 42 40
v 16 43 40
v 16 48 40
v -15 37 39
v -15 38 39
v -15 39 39
v -15 41 39
v -15 42 39
v -15 43 39
v 15 37 39
v 15 38 39
v 15 39 39
v 15 41 39
v 15 42 39
v 15 43 39
v -8 0 8
v -8 2 8
v -8 30 8
v -8 32 8
v 8 0 8
v 8 2 8
v 8 30 8
v 8 32 8
v -7 2 7
v -7 3 7
v -7 29 7
v -7 30 7
v 7 2 7
v 7 3 7
v 7 29 7
v 7 30 7
v -6 3 6
v -6 5 6
v -6 14 6
v -6 15 6
v -6 17 6
v -6 18 6
v -6 27 6
v -6 29 6
v 6 3 6
v 6 5 6
v 6 14 6
v 6 15 6
v 6 17 6
v 6 18 6
v 6 27 6
v 6 29 6
v -5 5 5
v -5 14 5
v -5 15 5
v -5 17 5
v -5 18 5
v -5 27 5
v 5 5 5
v 5 14 5
v 5 15 5
v 5 17 5
v 5 18 5
v 5 27 5
v -5 5 -5
v -5 14 -5
v -5 15 -5
v -5 17 -5
v -5 18 -5
v -5 27 -5
v 5 5 -5
v 5 14 -5
v 5 15 -5
v 5 17 -5
v 5 18 -5
v 5 27 -5
v -6 3 -6
v -6 5 -6
v -6 14 -6
v -6 15 -6
v -6 17 -6
v -6 18 -6
v -6 27 -6
v -6 29 -6
v 6 3 -6
v 6 5 -6
v 6 14 -6
v 6 15 -6
v 6 17 -6
v 6 18 -6
v 6 27 -6
v 6 29 -6
v -7 2 -7
v -7 3 -7
v -7 29 -7
v -7 30 -7
v 7 2 -7
v 7 3 -7
v 7 29 -7
v 7 30 -7
v -8 0 -8
v -8 2 -8
v -8 30 -8
v -8 32 -8
v 8 0 -8
v 8 2 -8
v 8 30 -8
v 8 32 -8
v -15 37 -39
v -15 38 -39
v -15 39 -39
v -15 41 -39
v -15 42 -39
v -15 43 -39
v 15 37 -39
v 15 38 -39
v 15 39 -39
v 15 41 -39
v 15 42 -39
v 15 43 -39
v -16 32 -40
v -16 37 -40
v -16 38 -40
v -16 39 -40
v -16 41 -40
v -16 42 -40
v -16 43 -40
v -16 48 -40
v 16 32 -40
v 16 37 -40
v 16 38 -40
v 16 39 -40
v 16 41 -40
v 16 42 -40
v 16 43 -40
v 16 48 -40
v -8 0 8
v 8 0 8
v -8 0 -8
v 8 0 -8
v -6 14 6
v 6 14 6
v -5 14 5
v 5 14 5
v -5 14 -5
v 5 14 -5
v -6 14 -6
v 6 14 -6
v -6 17 6
v 6 17 6
v -5 17 5
v 5 17 5
v -5 17 -5
v 5 17 -5
v -6 17 -6
v 6 17 -6
v -6 27 6
v 6 27 6
v -5 27 5
v 5 27 5
v -5 27 -5
v 5 27 -5
v -6 27 -6
v 6 27 -6
v -7 29 7
v 7 29 7
v -6 29 6
v 6 29 6
v -6 29 -6
v 6 29 -6
v -7 29 -7
v 7 29 -7
v -8 30 8
v 8 30 8
v -7 30 7
v 7 30 7
v -7 30 -7
v 7 30 -7
v -8 30 -8
v 8 30 -8
v -16 32 40
v 16 32 40
v -8 32 8
v 8 32 8
v -8 32 -8
v 8 32 -8
v -16 32 -40
v 16 32 -40
v -16 38 40
v 16 38 40
v -15 38 39
v 15 38 39
v -15 38 -39
v 15 38 -39
v -16 38 -40
v 16 38 -40
v -16 41 40
v 16 41 40
v -15 41 39
v 15 41 39
v -15 41 -39
v 15 41 -39
v -16 41 -40
v 16 41 -40
v -16 43 40
v 16 43 40
v -15 43 39
v 15 43 39
v -15 43 -39
v 15 43 -39
v -16 43 -40
v 16 43 -40
v -8 2 8
v 8 2 8
v -7 2 7
v 7 2 7
v -7 2 -7
v 7 2 -7
v -8 2 -8
v 8 2 -8
v -7 3 7
v 7 3 7
v -6 3 6
v 6 3 6
v -6 3 -6
v 6 3 -6
v -7 3 -7
v 7 3 -7
v -6 5 6
v 6 5 6
v -5 5 5
v 5 5 5
v -5 5 -5
v 5 5 -5
v -6 5 -6
v 6 5 -6
v -6 15 6
v 6 15 6
v -5 15 5
v 5 15 5
v -5 15 -5
v 5 15 -5
v -6 15 -6
v 6 15 -6
v -6 18 6
v 6 18 6
v -5 18 5
v 5 18 5
v -5 18 -5
v 5 18 -5
v -6 18 -6
v 6 18 -6
v -16 37 40
v 16 37 40
v -15 37 39
v 15 37 39
v -15 37 -39
v 15 37 -39
v -16 37 -40
v 16 37 -40
v -16 39 40
v 16 39 40
v -15 39 39
v 15 39 39
v -15 39 -39
v 15 39 -39
v -16 39 -40
v 16 39 -40
v -16 42 40
v 16 42 40
v -15 42 39
v 15 42 39
v -15 42 -39
v 15 42 -39
v -16 42 -40
v 16 42 -40
v -16 48 40
v 16 48 40
v -15 48 39
v -1 48 39
v 1 48 39
v 15 48 39
v -14 48 38
v -2 48 38
v 2 48 38
v 14 48 38
v -14 48 26
v -2 48 26
v 2 48 26
v 14 48 26
v -15 48 25
v -1 48 25
v 1 48 25
v 15 48 25
v -15 48 23
v -1 48 23
v 1 48 23
v 15 48 23
v -14 48 22
v -2 48 22
v 2 48 22
v 14 48 22
v -14 48 10
v -2 48 10
v 2 48 10
v 14 48 10
v -15 48 9
v -1 48 9
v 1 48 9
v 15 48 9
v -15 48 7
v -1 48 7
v 1 48 7
v 15 48 7
v -14 48 6
v -2 48 6
v 2 48 6
v 14 48 6
v -14 48 -6
v -2 48 -6
v 2 48 -6
v 14 48 -6
v -15 48 -7
v -1 48 -7
v 1 48 -7
v 15 48 -7
v -15 48 -9
v -1 48 -9
v 1 48 -9
v 15 48 -9
v -14 48 -10
v -2 48 -10
v 2 48 -10
v 14 48 -10
v -14 48 -22
v -2 48 -22
v 2 48 -22
v 14 48 -22
v -15 48 -23
v -1 48 -23
v 1 48 -23
v 15 48 -23
v -15 48 -25
v -1 48 -25
v 1 48 -25
v 15 48 -25
v -14 48 -26
v -2 48 -26
v 2 48 -26
v 14 48 -26
v -14 48 -38
v -2 48 -38
v 2 48 -38
v 14 48 -38
v -15 48 -39
v -1 48 -39
v 1 48 -39
v 15 48 -39
v -16 48 -40
v 16 48 -40

# faces
f 3/5/1 2/5/1 1/5/1
f 4/5/1 2/5/1 3/5/1
f 7/5/1 6/5/1 5/5/1
f 8/5/1 6/5/1 7/5/1
f 11/5/1 10/5/1 9/5/1
f 12/5/1 10/5/1 11/5/1
f 15/5/1 14/5/1 13/5/1
f 16/5/1 14/5/1 15/5/1
f 19/1/1 18/1/1 17/1/1
f 20/1/1 18/1/1 19/1/1
f 23/2/1 22/2/1 21/2/1
f 24/2/1 22/2/1 23/2/1
f 27/1/1 26/1/1 25/1/1
f 28/1/1 26/1/1 27/1/1
f 31/5/1 30/5/1 29/5/1
f 32/5/1 30/5/1 31/5/1
f 35/5/1 34/5/1 33/5/1
f 36/5/1 34/5/1 35/5/1
f 39/4/1 38/4/1 37/4/1
f 40/4/1 38/4/1 39/4/1
f 43/4/1 42/4/1 41/4/1
f 44/4/1 42/4/1 43/4/1
f 47/3/1 46/3/1 45/3/1
f 48/3/1 46/3/1 47/3/1
f 51/3/1 50/3/1 49/3/1
f 52/3/1 50/3/1 51/3/1
f 55/3/1 54/3/1 53/3/1
f 56/3/1 54/3/1 55/3/1
f 59/3/1 58/3/1 57/3/1
f 60/3/1 58/3/1 59/3/1
f 63/2/1 62/2/1 61/2/1
f 64/2/1 62/2/1 63/2/1
f 67/5/1 66/5/1 65/5/1
f 68/5/1 66/5/1 67/5/1
f 71/2/1 70/2/1 69/2/1
f 72/2/1 70/2/1 71/2/1
f 73/2/2 74/2/2 75/2/2
f 75/2/2 74/2/2 76/2/2
f 77/5/2 78/5/2 79/5/2
f 79/5/2 78/5/2 80/5/2
f 81/2/2 82/2/2 83/2/2
f 83/2/2 82/2/2 84/2/2
f 85/3/2 86/3/2 87/3/2
f 87/3/2 86/3/2 88/3/2
f 89/3/2 90/3/2 91/3/2
f 91/3/2 90/3/2 92/3/2
f 93/3/2 94/3/2 95/3/2
f 95/3/2 94/3/2 96/3/2
f 97/3/2 98/3/2 99/3/2
f 99/3/2 98/3/2 100/3/2
f 101/4/2 102/4/2 103/4/2
f 103/4/2 102/4/2 104/4/2
f 105/4/2 106/4/2 107/4/2
f 107/4/2 106/4/2 108/4/2
f 109/5/2 110/5/2 111/5/2
f 111/5/2 110/5/2 112/5/2
f 113/5/2 114/5/2 115/5/2
f 115/5/2 114/5/2 116/5/2
f 117/1/2 118/1/2 119/1/2
f 119/1/2 118/1/2 120/1/2
f 121/2/2 122/2/2 123/2/2
f 123/2/2 122/2/2 124/2/2
f 125/1/2 126/1/2 127/1/2
f 127/1/2 126/1/2 128/1/2
f 129/5/2 130/5/2 131/5/2
f 131/5/2 130/5/2 132/5/2
f 133/5/2 134/5/2 135/5/2
f 135/5/2 134/5/2 136/5/2
f 137/5/2 138/5/2 139/5/2
f 139/5/2 138/5/2 140/5/2
f 141/5/2 142/5/2 143/5/2
f 143/5/2 142/5/2 144/5/2
f 153/5/3 146/5/3 145/5/3
f 154/5/3 146/5/3 153/5/3
f 155/5/3 148/5/3 147/5/3
f 156/5/3 148/5/3 155/5/3
f 157/5/3 150/5/3 149/5/3
f 158/5/3 150/5/3 157/5/3
f 159/5/3 152/5/3 151/5/3
f 160/5/3 152/5/3 159/5/3
f 167/1/3 162/1/3 161/1/3
f 168/1/3 162/1/3 167/1/3
f 169/2/3 164/2/3 163/2/3
f 170/2/3 164/2/3 169/2/3
f 171/1/3 166/1/3 165/1/3
f 172/1/3 166/1/3 171/1/3
f 177/5/3 174/5/3 173/5/3
f 178/5/3 174/5/3 177/5/3
f 179/5/3 176/5/3 175/5/3
f 180/5/3 176/5/3 179/5/3
f 185/4/3 182/4/3 181/4/3
f 186/4/3 182/4/3 185/4/3
f 187/4/3 184/4/3 183/4/3
f 188/4/3 184/4/3 187/4/3
f 197/3/3 190/3/3 189/3/3
f 198/3/3 190/3/3 197/3/3
f 199/3/3 192/3/3 191/3/3
f 200/3/3 192/3/3 199/3/3
f 201/3/3 194/3/3 193/3/3
f 202/3/3 194/3/3 201/3/3
f 203/3/3 196/3/3 195/3/3
f 204/3/3 196/3/3 203/3/3
f 211/2/3 206/2/3 205/2/3
f 212/2/3 206/2/3 211/2/3
f 213/5/3 208/5/3 207/5/3
f 214/5/3 208/5/3 213/5/3
f 215/2/3 210/2/3 209/2/3
f 216/2/3 210/2/3 215/2/3
f 217/2/4 218/2/4 223/2/4
f 223/2/4 218/2/4 224/2/4
f 219/5/4 220/5/4 225/5/4
f 225/5/4 220/5/4 226/5/4
f 221/2/4 222/2/4 227/2/4
f 227/2/4 222/2/4 228/2/4
f 229/3/4 230/3/4 237/3/4
f 237/3/4 230/3/4 238/3/4
f 231/3/4 232/3/4 239/3/4
f 239/3/4 232/3/4 240/3/4
f 233/3/4 234/3/4 241/3/4
f 241/3/4 234/3/4 242/3/4
f 235/3/4 236/3/4 243/3/4
f 243/3/4 236/3/4 244/3/4
f 245/4/4 246/4/4 249/4/4
f 249/4/4 246/4/4 250/4/4
f 247/4/4 248/4/4 251/4/4
f 251/4/4 248/4/4 252/4/4
f 253/5/4 254/5/4 257/5/4
f 257/5/4 254/5/4 258/5/4
f 255/5/4 256/5/4 259/5/4
f 259/5/4 256/5/4 260/5/4
f 261/1/4 262/1/4 267/1/4
f 267/1/4 262/1/4 268/1/4
f 263/2/4 264/2/4 269/2/4
f 269/2/4 264/2/4 270/2/4
f 265/1/4 266/1/4 271/1/4
f 271/1/4 266/1/4 272/1/4
f 273/5/4 274/5/4 281/5/4
f 281/5/4 274/5/4 282/5/4
f 275/5/4 276/5/4 283/5/4
f 283/5/4 276/5/4 284/5/4
f 277/5/4 278/5/4 285/5/4
f 285/5/4 278/5/4 286/5/4
f 279/5/4 280/5/4 287/5/4
f 287/5/4 280/5/4 288/5/4
f 291/5/5 290/5/5 289/5/5
f 292/5/5 290/5/5 291/5/5
f 295/3/5 294/3/5 293/3/5
f 296/3/5 294/3/5 295/3/5
f 297/3/5 295/3/5 293/3/5
f 298/3/5 294/3/5 296/3/5
f 299/3/5 297/3/5 293/3/5
f 299/3/5 298/3/5 297/3/5
f 300/3/5 294/3/5 298/3/5
f 300/3/5 298/3/5 299/3/5
f 303/3/5 302/3/5 301/3/5
f 304/3/5 302/3/5 303/3/5
f 305/3/5 303/3/5 301/3/5
f 306/3/5 302/3/5 304/3/5
f 307/3/5 305/3/5 301/3/5
f 307/3/5 306/3/5 305/3/5
f 308/3/5 302/3/5 306/3/5
f 308/3/5 306/3/5 307/3/5
f 311/3/5 310/3/5 309/3/5
f 312/3/5 310/3/5 311/3/5
f 313/3/5 311/3/5 309/3/5
f 314/3/5 310/3/5 312/3/5
f 315/3/5 313/3/5 309/3/5
f 315/3/5 314/3/5 313/3/5
f 316/3/5 310/3/5 314/3/5
f 316/3/5 314/3/5 315/3/5
f 319/4/5 318/4/5 317/4/5
f 320/4/5 318/4/5 319/4/5
f 321/4/5 319/4/5 317/4/5
f 322/4/5 318/4/5 320/4/5
f 323/4/5 321/4/5 317/4/5
f 323/4/5 322/4/5 321/4/5
f 324/4/5 318/4/5 322/4/5
f 324/4/5 322/4/5 323/4/5
f 327/5/5 326/5/5 325/5/5
f 328/5/5 326/5/5 327/5/5
f 329/5/5 327/5/5 325/5/5
f 330/5/5 326/5/5 328/5/5
f 331/5/5 329/5/5 325/5/5
f 331/5/5 330/5/5 329/5/5
f 332/5/5 326/5/5 330/5/5
f 332/5/5 330/5/5 331/5/5
f 335/5/5 334/5/5 333/5/5
f 336/5/5 334/5/5 335/5/5
f 337/5/5 335/5/5 333/5/5
f 338/5/5 334/5/5 336/5/5
f 339/5/5 337/5/5 333/5/5
f 339/5/5 338/5/5 337/5/5
f 340/5/5 334/5/5 338/5/5
f 340/5/5 338/5/5 339/5/5
f 343/5/5 342/5/5 341/5/5
f 344/5/5 342/5/5 343/5/5
f 345/5/5 343/5/5 341/5/5
f 346/5/5 342/5/5 344/5/5
f 347/5/5 345/5/5 341/5/5
f 347/5/5 346/5/5 345/5/5
f 348/5/5 342/5/5 346/5/5
f 348/5/5 346/5/5 347/5/5
f 351/5/5 350/5/5 349/5/5
f 352/5/5 350/5/5 351/5/5
f 353/5/5 351/5/5 349/5/5
f 354/5/5 350/5/5 352/5/5
f 355/5/5 353/5/5 349/5/5
f 355/5/5 354/5/5 353/5/5
f 356/5/5 350/5/5 354/5/5
f 356/5/5 354/5/5 355/5/5
f 359/5/5 358/5/5 357/5/5
f 360/5/5 358/5/5 359/5/5
f 361/5/5 359/5/5 357/5/5
f 362/5/5 358/5/5 360/5/5
f 363/5/5 361/5/5 357/5/5
f 363/5/5 362/5/5 361/5/5
f 364/5/5 358/5/5 362/5/5
f 364/5/5 362/5/5 363/5/5
f 365/5/6 366/5/6 367/5/6
f 367/5/6 366/5/6 368/5/6
f 365/5/6 367/5/6 369/5/6
f 368/5/6 366/5/6 370/5/6
f 365/5/6 369/5/6 371/5/6
f 369/5/6 370/5/6 371/5/6
f 370/5/6 366/5/6 372/5/6
f 371/5/6 370/5/6 372/5/6
f 373/4/6 374/4/6 375/4/6
f 375/4/6 374/4/6 376/4/6
f 373/4/6 375/4/6 377/4/6
f 376/4/6 374/4/6 378/4/6
f 373/4/6 377/4/6 379/4/6
f 377/4/6 378/4/6 379/4/6
f 378/4/6 374/4/6 380/4/6
f 379/4/6 378/4/6 380/4/6
f 381/3/6 382/3/6 383/3/6
f 383/3/6 382/3/6 384/3/6
f 381/3/6 383/3/6 385/3/6
f 384/3/6 382/3/6 386/3/6
f 381/3/6 385/3/6 387/3/6
f 385/3/6 386/3/6 387/3/6
f 386/3/6 382/3/6 388/3/6
f 387/3/6 386/3/6 388/3/6
f 389/3/6 390/3/6 391/3/6
f 391/3/6 390/3/6 392/3/6
f 389/3/6 391/3/6 393/3/6
f 392/3/6 390/3/6 394/3/6
f 389/3/6 393/3/6 395/3/6
f 393/3/6 394/3/6 395/3/6
f 394/3/6 390/3/6 396/3/6
f 395/3/6 394/3/6 396/3/6
f 397/3/6 398/3/6 399/3/6
f 399/3/6 398/3/6 400/3/6
f 397/3/6 399/3/6 401/3/6
f 400/3/6 398/3/6 402/3/6
f 397/3/6 401/3/6 403/3/6
f 401/3/6 402/3/6 403/3/6
f 402/3/6 398/3/6 404/3/6
f 403/3/6 402/3/6 404/3/6
f 405/5/6 406/5/6 407/5/6
f 407/5/6 406/5/6 408/5/6
f 405/5/6 407/5/6 409/5/6
f 408/5/6 406/5/6 410/5/6
f 405/5/6 409/5/6 411/5/6
f 409/5/6 410/5/6 411/5/6
f 410/5/6 406/5/6 412/5/6
f 411/5/6 410/5/6 412/5/6
f 413/5/6 414/5/6 415/5/6
f 415/5/6 414/5/6 416/5/6
f 413/5/6 415/5/6 417/5/6
f 416/5/6 414/5/6 418/5/6
f 413/5/6 417/5/6 419/5/6
f 417/5/6 418/5/6 419/5/6
f 418/5/6 414/5/6 420/5/6
f 419/5/6 418/5/6 420/5/6
f 421/5/6 422/5/6 423/5/6
f 423/5/6 422/5/6 424/5/6
f 421/5/6 423/5/6 425/5/6
f 424/5/6 422/5/6 426/5/6
f 421/5/6 425/5/6 427/5/6
f 425/5/6 426/5/6 427/5/6
f 426/5/6 422/5/6 428/5/6
f 427/5/6 426/5/6 428/5/6
f 429/5/6 430/5/6 431/5/6
f 431/5/6 430/5/6 432/5/6
f 432/5/6 430/5/6 433/5/6
f 433/5/6 430/5/6 434/5/6
f 431/4/6 432/4/6 435/4/6
f 435/4/6 432/4/6 436/4/6
f 433/4/6 434/4/6 437/4/6
f 437/4/6 434/4/6 438/4/6
f 431/4/6 435/4/6 439/4/6
f 435/3/6 436/3/6 439/3/6
f 436/4/6 432/4/6 440/4/6
f 439/3/6 436/3/6 440/3/6
f 437/3/6 438/3/6 441/3/6
f 433/4/6 437/4/6 441/4/6
f 438/4/6 434/4/6 442/4/6
f 441/3/6 438/3/6 442/3/6
f 429/5/6 431/5/6 443/5/6
f 431/4/6 439/4/6 443/4/6
f 439/4/6 440/4/6 443/4/6
f 432/5/6 433/5/6 444/5/6
f 443/4/6 440/4/6 444/4/6
f 440/4/6 432/4/6 444/4/6
f 441/4/6 442/4/6 445/4/6
f 444/5/6 433/5/6 445/5/6
f 433/4/6 441/4/6 445/4/6
f 442/4/6 434/4/6 446/4/6
f 445/4/6 442/4/6 446/4/6
f 434/5/6 430/5/6 446/5/6
f 444/5/6 445/5/6 447/5/6
f 443/5/6 444/5/6 447/5/6
f 445/5/6 446/5/6 447/5/6
f 429/5/6 443/5/6 447/5/6
f 447/5/6 446/5/6 448/5/6
f 448/5/6 446/5/6 449/5/6
f 446/5/6 430/5/6 450/5/6
f 449/5/6 446/5/6 450/5/6
f 447/4/6 448/4/6 451/4/6
f 451/4/6 448/4/6 452/4/6
f 449/4/6 450/4/6 453/4/6
f 453/4/6 450/4/6 454/4/6
f 447/4/6 451/4/6 455/4/6
f 451/3/6 452/3/6 455/3/6
f 452/4/6 448/4/6 456/4/6
f 455/3/6 452/3/6 456/3/6
f 453/3/6 454/3/6 457/3/6
f 449/4/6 453/4/6 457/4/6
f 454/4/6 450/4/6 458/4/6
f 457/3/6 454/3/6 458/3/6
f 429/5/6 447/5/6 459/5/6
f 447/4/6 455/4/6 459/4/6
f 455/4/6 456/4/6 459/4/6
f 448/5/6 449/5/6 460/5/6
f 459/4/6 456/4/6 460/4/6
f 456/4/6 448/4/6 460/4/6
f 457/4/6 458/4/6 461/4/6
f 460/5/6 449/5/6 461/5/6
f 449/4/6 457/4/6 461/4/6
f 458/4/6 450/4/6 462/4/6
f 461/4/6 458/4/6 462/4/6
f 450/5/6 430/5/6 462/5/6
f 429/5/6 459/5/6 463/5/6
f 460/5/6 461/5/6 463/5/6
f 461/5/6 462/5/6 463/5/6
f 459/5/6 460/5/6 463/5/6
f 463/5/6 462/5/6 464/5/6
f 464/5/6 462/5/6 465/5/6
f 462/5/6 430/5/6 466/5/6
f 465/5/6 462/5/6 466/5/6
f 463/4/6 464/4/6 467/4/6
f 467/4/6 464/4/6 468/4/6
f 465/4/6 466/4/6 469/4/6
f 469/4/6 466/4/6 470/4/6
f 463/4/6 467/4/6 471/4/6
f 467/3/6 468/3/6 471/3/6
f 468/4/6 464/4/6 472/4/6
f 471/3/6 468/3/6 472/3/6
f 469/3/6 470/3/6 473/3/6
f 465/4/6 469/4/6 473/4/6
f 470/4/6 466/4/6 474/4/6
f 473/3/6 470/3/6 474/3/6
f 429/5/6 463/5/6 475/5/6
f 463/4/6 471/4/6 475/4/6
f 471/4/6 472/4/6 475/4/6
f 464/5/6 465/5/6 476/5/6
f 475/4/6 472/4/6 476/4/6
f 472/4/6 464/4/6 476/4/6
f 473/4/6 474/4/6 477/4/6
f 476/5/6 465/5/6 477/5/6
f 465/4/6 473/4/6 477/4/6
f 474/4/6 466/4/6 478/4/6
f 477/4/6 474/4/6 478/4/6
f 466/5/6 430/5/6 478/5/6
f 429/5/6 475/5/6 479/5/6
f 476/5/6 477/5/6 479/5/6
f 477/5/6 478/5/6 479/5/6
f 475/5/6 476/5/6 479/5/6
f 479/5/6 478/5/6 480/5/6
f 480/5/6 478/5/6 481/5/6
f 478/5/6 430/5/6 482/5/6
f 481/5/6 478/5/6 482/5/6
f 479/4/6 480/4/6 483/4/6
f 483/4/6 480/4/6 484/4/6
f 481/4/6 482/4/6 485/4/6
f 485/4/6 482/4/6 486/4/6
f 479/4/6 483/4/6 487/4/6
f 483/3/6 484/3/6 487/3/6
f 484/4/6 480/4/6 488/4/6
f 487/3/6 484/3/6 488/3/6
f 485/3/6 486/3/6 489/3/6
f 481/4/6 485/4/6 489/4/6
f 486/4/6 482/4/6 490/4/6
f 489/3/6 486/3/6 490/3/6
f 429/5/6 479/5/6 491/5/6
f 479/4/6 487/4/6 491/4/6
f 487/4/6 488/4/6 491/4/6
f 480/5/6 481/5/6 492/5/6
f 491/4/6 488/4/6 492/4/6
f 488/4/6 480/4/6 492/4/6
f 489/4/6 490/4/6 493/4/6
f 492/5/6 481/5/6 493/5/6
f 481/4/6 489/4/6 493/4/6
f 490/4/6 482/4/6 494/4/6
f 493/4/6 490/4/6 494/4/6
f 482/5/6 430/5/6 494/5/6
f 429/5/6 491/5/6 495/5/6
f 492/5/6 493/5/6 495/5/6
f 493/5/6 494/5/6 495/5/6
f 491/5/6 492/5/6 495/5/6
f 495/5/6 494/5/6 496/5/6
f 496/5/6 494/5/6 497/5/6
f 494/5/6 430/5/6 498/5/6
f 497/5/6 494/5/6 498/5/6
f 495/4/6 496/4/6 499/4/6
f 499/4/6 496/4/6 500/4/6
f 497/4/6 498/4/6 501/4/6
f 501/4/6 498/4/6 502/4/6
f 495/4/6 499/4/6 503/4/6
f 499/3/6 500/3/6 503/3/6
f 500/4/6 496/4/6 504/4/6
f 503/3/6 500/3/6 504/3/6
f 501/3/6 502/3/6 505/3/6
f 497/4/6 501/4/6 505/4/6
f 502/4/6 498/4/6 506/4/6
f 505/3/6 502/3/6 506/3/6
f 429/5/6 495/5/6 507/5/6
f 495/4/6 503/4/6 507/4/6
f 503/4/6 504/4/6 507/4/6
f 496/5/6 497/5/6 508/5/6
f 507/4/6 504/4/6 508/4/6
f 504/4/6 496/4/6 508/4/6
f 505/4/6 506/4/6 509/4/6
f 508/5/6 497/5/6 509/5/6
f 497/4/6 505/4/6 509/4/6
f 506/4/6 498/4/6 510/4/6
f 509/4/6 506/4/6 510/4/6
f 498/5/6 430/5/6 510/5/6
f 429/5/6 507/5/6 511/5/6
f 508/5/6 509/5/6 511/5/6
f 509/5/6 510/5/6 511/5/6
f 507/5/6 508/5/6 511/5/6
f 510/5/6 430/5/6 512/5/6
f 511/5/6 510/5/6 512/5/6
